%TF.GenerationSoftware,Altium Limited,Altium Designer,23.4.1 (23)*%
G04 Layer_Color=32896*
%FSLAX45Y45*%
%MOMM*%
%TF.SameCoordinates,B93E8061-1334-4625-9DA7-9BA1A821EA0A*%
%TF.FilePolarity,Positive*%
%TF.FileFunction,Legend,Bot*%
%TF.Part,Single*%
G01*
G75*
%TA.AperFunction,NonConductor*%
%ADD22C,0.25400*%
D22*
X920000Y4669998D02*
Y4920000D01*
X1170002D01*
Y4669998D02*
Y4920000D01*
Y4669998D02*
X1419999D01*
Y4920000D01*
X1670001D01*
Y4669998D02*
Y4920000D01*
Y4669998D02*
X1919998D01*
Y4920000D01*
X2170000D01*
Y4520001D02*
Y4920000D01*
X1170002Y270002D02*
X1670001D01*
X1170002Y519999D02*
X1670001D01*
Y270002D02*
Y519999D01*
X1170002Y270002D02*
Y519999D01*
X420001Y270002D02*
X2420002D01*
X420001Y5020000D02*
X2420002D01*
Y270002D02*
Y5020000D01*
X420001Y270002D02*
Y5020000D01*
X683306Y4949984D02*
Y4866678D01*
X666645Y4850016D01*
X633323D01*
X616661Y4866678D01*
Y4949984D01*
X516694D02*
X550016Y4933323D01*
X583339Y4900000D01*
Y4866678D01*
X566677Y4850016D01*
X533355D01*
X516694Y4866678D01*
Y4883339D01*
X533355Y4900000D01*
X583339D01*
%TF.MD5,28cb47da7cd2c56852bb29934437a6ad*%
M02*
