%TF.GenerationSoftware,Altium Limited,Altium Designer,23.4.1 (23)*%
G04 Layer_Physical_Order=2*
G04 Layer_Color=16711680*
%FSLAX45Y45*%
%MOMM*%
%TF.SameCoordinates,B93E8061-1334-4625-9DA7-9BA1A821EA0A*%
%TF.FilePolarity,Positive*%
%TF.FileFunction,Copper,L2,Bot,Signal*%
%TF.Part,Single*%
G01*
G75*
%TA.AperFunction,Conductor*%
%ADD18C,0.25400*%
%TA.AperFunction,ComponentPad*%
%ADD19R,1.80000X1.80000*%
%ADD20C,1.80000*%
%TA.AperFunction,ViaPad*%
%ADD21C,0.80000*%
D18*
X814436Y378402D02*
Y513663D01*
X728100Y600000D02*
X814436Y513663D01*
X600000Y600000D02*
X728100D01*
X814436Y378402D02*
X970938Y221900D01*
X1291900D01*
X1420000Y350000D01*
X2034001Y964001D01*
X2669999D01*
X2403900Y3008100D02*
X2669999Y2742001D01*
X1506900Y3008100D02*
X2403900D01*
X1345000Y3174813D02*
Y3195000D01*
Y3174813D02*
X1369396Y3150417D01*
Y3145604D02*
Y3150417D01*
Y3145604D02*
X1506900Y3008100D01*
D19*
X600000Y600000D02*
D03*
X2669999Y4520001D02*
D03*
D20*
X600000Y854000D02*
D03*
X145000Y4520001D02*
D03*
Y4266001D02*
D03*
Y4012001D02*
D03*
Y3758001D02*
D03*
Y3504001D02*
D03*
Y3250001D02*
D03*
Y2996001D02*
D03*
Y2742001D02*
D03*
Y2488001D02*
D03*
Y2234001D02*
D03*
Y1980001D02*
D03*
Y1726001D02*
D03*
Y1472001D02*
D03*
Y1218001D02*
D03*
Y964001D02*
D03*
X2669999D02*
D03*
Y1218001D02*
D03*
Y1472001D02*
D03*
Y1726001D02*
D03*
Y1980001D02*
D03*
Y2234001D02*
D03*
Y2488001D02*
D03*
Y2742001D02*
D03*
Y2996001D02*
D03*
Y3250001D02*
D03*
Y3504001D02*
D03*
Y3758001D02*
D03*
Y4012001D02*
D03*
Y4266001D02*
D03*
X1816001Y350000D02*
D03*
X1420000D02*
D03*
X1023999D02*
D03*
D21*
X1345000Y3195000D02*
D03*
%TF.MD5,a345cb6cf10cd8b901d7b4130a070e1e*%
M02*
