%TF.GenerationSoftware,Altium Limited,Altium Designer,23.4.1 (23)*%
G04 Layer_Color=0*
%FSLAX45Y45*%
%MOMM*%
%TF.SameCoordinates,B93E8061-1334-4625-9DA7-9BA1A821EA0A*%
%TF.FilePolarity,Positive*%
%TF.FileFunction,Plated,1,2,PTH,Drill*%
%TF.Part,Single*%
G01*
G75*
%TA.AperFunction,ComponentDrill*%
%ADD43C,1.00000*%
%ADD44C,1.00000*%
%TA.AperFunction,ViaDrill,NotFilled*%
%ADD45C,0.50000*%
D43*
X600000Y600000D02*
D03*
Y854000D02*
D03*
X145000Y4520001D02*
D03*
Y4266001D02*
D03*
Y4012001D02*
D03*
Y3758001D02*
D03*
Y3504001D02*
D03*
Y3250001D02*
D03*
Y2996001D02*
D03*
Y2742001D02*
D03*
Y2488001D02*
D03*
Y2234001D02*
D03*
Y1980001D02*
D03*
Y1726001D02*
D03*
Y1472001D02*
D03*
Y1218001D02*
D03*
Y964001D02*
D03*
X2669999D02*
D03*
Y1218001D02*
D03*
Y1472001D02*
D03*
Y1726001D02*
D03*
Y1980001D02*
D03*
Y2234001D02*
D03*
Y2488001D02*
D03*
Y2742001D02*
D03*
Y2996001D02*
D03*
Y3250001D02*
D03*
Y3504001D02*
D03*
Y3758001D02*
D03*
Y4012001D02*
D03*
Y4266001D02*
D03*
Y4520001D02*
D03*
D44*
X1816001Y350000D02*
D03*
X1420000D02*
D03*
X1023999D02*
D03*
D45*
X1345000Y3195000D02*
D03*
%TF.MD5,19f96c84b2cdf90cc67bb264582a953b*%
M02*
