%TF.GenerationSoftware,Altium Limited,Altium Designer,23.4.1 (23)*%
G04 Layer_Color=8421504*
%FSLAX45Y45*%
%MOMM*%
%TF.SameCoordinates,B93E8061-1334-4625-9DA7-9BA1A821EA0A*%
%TF.FilePolarity,Positive*%
%TF.FileFunction,Paste,Top*%
%TF.Part,Single*%
G01*
G75*
%TA.AperFunction,SMDPad,CuDef*%
G04:AMPARAMS|DCode=10|XSize=1mm|YSize=1.3mm|CornerRadius=0.25mm|HoleSize=0mm|Usage=FLASHONLY|Rotation=270.000|XOffset=0mm|YOffset=0mm|HoleType=Round|Shape=RoundedRectangle|*
%AMROUNDEDRECTD10*
21,1,1.00000,0.80000,0,0,270.0*
21,1,0.50000,1.30000,0,0,270.0*
1,1,0.50000,-0.40000,-0.25000*
1,1,0.50000,-0.40000,0.25000*
1,1,0.50000,0.40000,0.25000*
1,1,0.50000,0.40000,-0.25000*
%
%ADD10ROUNDEDRECTD10*%
G04:AMPARAMS|DCode=11|XSize=2mm|YSize=3mm|CornerRadius=0.5mm|HoleSize=0mm|Usage=FLASHONLY|Rotation=0.000|XOffset=0mm|YOffset=0mm|HoleType=Round|Shape=RoundedRectangle|*
%AMROUNDEDRECTD11*
21,1,2.00000,2.00000,0,0,0.0*
21,1,1.00000,3.00000,0,0,0.0*
1,1,1.00000,0.50000,-1.00000*
1,1,1.00000,-0.50000,-1.00000*
1,1,1.00000,-0.50000,1.00000*
1,1,1.00000,0.50000,1.00000*
%
%ADD11ROUNDEDRECTD11*%
G04:AMPARAMS|DCode=12|XSize=1.3mm|YSize=1.5mm|CornerRadius=0.325mm|HoleSize=0mm|Usage=FLASHONLY|Rotation=180.000|XOffset=0mm|YOffset=0mm|HoleType=Round|Shape=RoundedRectangle|*
%AMROUNDEDRECTD12*
21,1,1.30000,0.85000,0,0,180.0*
21,1,0.65000,1.50000,0,0,180.0*
1,1,0.65000,-0.32500,0.42500*
1,1,0.65000,0.32500,0.42500*
1,1,0.65000,0.32500,-0.42500*
1,1,0.65000,-0.32500,-0.42500*
%
%ADD12ROUNDEDRECTD12*%
%ADD13R,2.00000X1.68000*%
G04:AMPARAMS|DCode=14|XSize=1.3mm|YSize=1.5mm|CornerRadius=0.325mm|HoleSize=0mm|Usage=FLASHONLY|Rotation=90.000|XOffset=0mm|YOffset=0mm|HoleType=Round|Shape=RoundedRectangle|*
%AMROUNDEDRECTD14*
21,1,1.30000,0.85000,0,0,90.0*
21,1,0.65000,1.50000,0,0,90.0*
1,1,0.65000,0.42500,0.32500*
1,1,0.65000,0.42500,-0.32500*
1,1,0.65000,-0.42500,-0.32500*
1,1,0.65000,-0.42500,0.32500*
%
%ADD14ROUNDEDRECTD14*%
%ADD15R,2.39000X2.39000*%
%ADD16O,1.45000X0.60000*%
G04:AMPARAMS|DCode=17|XSize=1.5mm|YSize=0.6mm|CornerRadius=0.24mm|HoleSize=0mm|Usage=FLASHONLY|Rotation=0.000|XOffset=0mm|YOffset=0mm|HoleType=Round|Shape=RoundedRectangle|*
%AMROUNDEDRECTD17*
21,1,1.50000,0.12000,0,0,0.0*
21,1,1.02000,0.60000,0,0,0.0*
1,1,0.48000,0.51000,-0.06000*
1,1,0.48000,-0.51000,-0.06000*
1,1,0.48000,-0.51000,0.06000*
1,1,0.48000,0.51000,0.06000*
%
%ADD17ROUNDEDRECTD17*%
D10*
X549998Y1351250D02*
D03*
Y1148751D02*
D03*
X505406Y3355955D02*
D03*
Y3558454D02*
D03*
X755403Y2905953D02*
D03*
Y3108452D02*
D03*
Y3558454D02*
D03*
Y3355955D02*
D03*
X2055405Y2905953D02*
D03*
Y3108452D02*
D03*
X2305402Y3559703D02*
D03*
Y3357204D02*
D03*
X2055405Y3559703D02*
D03*
Y3357204D02*
D03*
D11*
X1570001Y4920001D02*
D03*
X1870000D02*
D03*
X1269999D02*
D03*
X970000D02*
D03*
D12*
X1583407Y4529201D02*
D03*
X1363407D02*
D03*
X1613404Y3579200D02*
D03*
X1393405D02*
D03*
X2650000Y690001D02*
D03*
X2430000D02*
D03*
D13*
X865405Y4357202D02*
D03*
X455408D02*
D03*
X865405Y3857203D02*
D03*
X455408D02*
D03*
X2335405Y4357202D02*
D03*
X1925408D02*
D03*
X2335405Y3857203D02*
D03*
X1925408D02*
D03*
D14*
X505406Y3117205D02*
D03*
Y2897200D02*
D03*
X2305402Y3117205D02*
D03*
Y2897200D02*
D03*
D15*
X1400405Y4107200D02*
D03*
D16*
X1672906Y3916700D02*
D03*
Y4043700D02*
D03*
Y4170700D02*
D03*
Y4297700D02*
D03*
X1127909Y3916700D02*
D03*
Y4043700D02*
D03*
Y4170700D02*
D03*
Y4297700D02*
D03*
D17*
X1148407Y3356204D02*
D03*
Y3229204D02*
D03*
Y3102204D02*
D03*
Y2975204D02*
D03*
X1678403D02*
D03*
Y3102204D02*
D03*
Y3229204D02*
D03*
Y3356204D02*
D03*
%TF.MD5,1d4dcf5298669cc5e6d008599da2056b*%
M02*
