%TF.GenerationSoftware,Altium Limited,Altium Designer,23.4.1 (23)*%
G04 Layer_Color=65535*
%FSLAX45Y45*%
%MOMM*%
%TF.SameCoordinates,B93E8061-1334-4625-9DA7-9BA1A821EA0A*%
%TF.FilePolarity,Positive*%
%TF.FileFunction,Legend,Top*%
%TF.Part,Single*%
G01*
G75*
%TA.AperFunction,NonConductor*%
%ADD22C,0.25400*%
%ADD23C,0.20000*%
%ADD24C,0.20000*%
%ADD25C,0.10000*%
D22*
X1280290Y3364304D02*
G03*
X1284285Y3366791I7815J-8104D01*
G01*
X753223Y473812D02*
Y973811D01*
X453223Y473812D02*
Y973811D01*
X753223D01*
X453223Y473812D02*
X753223D01*
X1970001Y99998D02*
Y599997D01*
X869999Y99998D02*
Y599997D01*
Y99998D02*
X1970001D01*
X869999Y599997D02*
X1970001D01*
X869999Y150000D02*
X1970001D01*
X483355Y1460013D02*
Y1539987D01*
X523342D01*
X536671Y1526658D01*
Y1500000D01*
X523342Y1486671D01*
X483355D01*
X510013D02*
X536671Y1460013D01*
X616645D02*
X563329D01*
X616645Y1513329D01*
Y1526658D01*
X603316Y1539987D01*
X576658D01*
X563329Y1526658D01*
X493368Y419987D02*
Y366671D01*
X520026Y340013D01*
X546684Y366671D01*
Y419987D01*
X573342D02*
Y340013D01*
X613329D01*
X626658Y353342D01*
Y406658D01*
X613329Y419987D01*
X573342D01*
X706632Y340013D02*
X653316D01*
X706632Y393329D01*
Y406658D01*
X693303Y419987D01*
X666645D01*
X653316Y406658D01*
X2032951Y4827787D02*
X2086267Y4747813D01*
Y4827787D02*
X2032951Y4747813D01*
X2166241Y4827787D02*
X2112925D01*
Y4787800D01*
X2139583Y4801129D01*
X2152912D01*
X2166241Y4787800D01*
Y4761142D01*
X2152912Y4747813D01*
X2126254D01*
X2112925Y4761142D01*
X657951Y4827787D02*
X711267Y4747813D01*
Y4827787D02*
X657951Y4747813D01*
X777912D02*
Y4827787D01*
X737925Y4787800D01*
X791241D01*
X1810467Y4635066D02*
Y4581750D01*
X1837125Y4555091D01*
X1863783Y4581750D01*
Y4635066D01*
X1890441D02*
Y4555091D01*
X1930428D01*
X1943757Y4568421D01*
Y4621737D01*
X1930428Y4635066D01*
X1890441D01*
X2023731D02*
X1997073Y4621737D01*
X1970415Y4595079D01*
Y4568421D01*
X1983744Y4555091D01*
X2010402D01*
X2023731Y4568421D01*
Y4581750D01*
X2010402Y4595079D01*
X1970415D01*
X1410842Y4722443D02*
X1397514Y4735772D01*
X1370856D01*
X1357526Y4722443D01*
Y4669127D01*
X1370856Y4655797D01*
X1397514D01*
X1410842Y4669127D01*
X1490817Y4735772D02*
X1437501D01*
Y4695785D01*
X1464159Y4709114D01*
X1477488D01*
X1490817Y4695785D01*
Y4669127D01*
X1477488Y4655797D01*
X1450830D01*
X1437501Y4669127D01*
X2028013Y86229D02*
X2107987Y139545D01*
X2028013D02*
X2107987Y86229D01*
X2041342Y166203D02*
X2028013Y179532D01*
Y206190D01*
X2041342Y219519D01*
X2054671D01*
X2068000Y206190D01*
Y192861D01*
Y206190D01*
X2081329Y219519D01*
X2094658D01*
X2107987Y206190D01*
Y179532D01*
X2094658Y166203D01*
X1818772Y4147187D02*
Y4093871D01*
X1845430Y4067213D01*
X1872088Y4093871D01*
Y4147187D01*
X1898746D02*
Y4067213D01*
X1938733D01*
X1952062Y4080542D01*
Y4133858D01*
X1938733Y4147187D01*
X1898746D01*
X2032036D02*
X1978720D01*
Y4107200D01*
X2005378Y4120529D01*
X2018707D01*
X2032036Y4107200D01*
Y4080542D01*
X2018707Y4067213D01*
X1992049D01*
X1978720Y4080542D01*
X318772Y4147187D02*
Y4093871D01*
X345430Y4067213D01*
X372088Y4093871D01*
Y4147187D01*
X398746D02*
Y4067213D01*
X438733D01*
X452062Y4080542D01*
Y4133858D01*
X438733Y4147187D01*
X398746D01*
X518708Y4067213D02*
Y4147187D01*
X478720Y4107200D01*
X532037D01*
X318772Y4647187D02*
Y4593871D01*
X345430Y4567213D01*
X372088Y4593871D01*
Y4647187D01*
X398746D02*
Y4567213D01*
X438733D01*
X452062Y4580542D01*
Y4633858D01*
X438733Y4647187D01*
X398746D01*
X478720Y4633858D02*
X492050Y4647187D01*
X518708D01*
X532037Y4633858D01*
Y4620529D01*
X518708Y4607200D01*
X505378D01*
X518708D01*
X532037Y4593871D01*
Y4580542D01*
X518708Y4567213D01*
X492050D01*
X478720Y4580542D01*
X1106655Y4478304D02*
Y4411659D01*
X1119984Y4398330D01*
X1146642D01*
X1159971Y4411659D01*
Y4478304D01*
X1239945D02*
X1186629D01*
Y4438317D01*
X1213287Y4451646D01*
X1226616D01*
X1239945Y4438317D01*
Y4411659D01*
X1226616Y4398330D01*
X1199958D01*
X1186629Y4411659D01*
X1086759Y3544187D02*
Y3477542D01*
X1100088Y3464213D01*
X1126746D01*
X1140075Y3477542D01*
Y3544187D01*
X1206720Y3464213D02*
Y3544187D01*
X1166733Y3504200D01*
X1220049D01*
X2520391Y3315555D02*
X2440417D01*
Y3355542D01*
X2453746Y3368871D01*
X2480404D01*
X2493733Y3355542D01*
Y3315555D01*
Y3342213D02*
X2520391Y3368871D01*
X2453746Y3395529D02*
X2440417Y3408859D01*
Y3435517D01*
X2453746Y3448846D01*
X2467075D01*
X2480404Y3435517D01*
X2493733Y3448846D01*
X2507062D01*
X2520391Y3435517D01*
Y3408859D01*
X2507062Y3395529D01*
X2493733D01*
X2480404Y3408859D01*
X2467075Y3395529D01*
X2453746D01*
X2480404Y3408859D02*
Y3435517D01*
X1920391Y3315555D02*
X1840417D01*
Y3355542D01*
X1853746Y3368871D01*
X1880404D01*
X1893733Y3355542D01*
Y3315555D01*
Y3342213D02*
X1920391Y3368871D01*
X1840417Y3395529D02*
Y3448846D01*
X1853746D01*
X1907062Y3395529D01*
X1920391D01*
Y2865555D02*
X1840417D01*
Y2905542D01*
X1853746Y2918871D01*
X1880404D01*
X1893733Y2905542D01*
Y2865555D01*
Y2892213D02*
X1920391Y2918871D01*
X1840417Y2998845D02*
X1853746Y2972187D01*
X1880404Y2945529D01*
X1907062D01*
X1920391Y2958858D01*
Y2985517D01*
X1907062Y2998845D01*
X1893733D01*
X1880404Y2985517D01*
Y2945529D01*
X370391Y3315555D02*
X290417D01*
Y3355542D01*
X303746Y3368871D01*
X330404D01*
X343733Y3355542D01*
Y3315555D01*
Y3342213D02*
X370391Y3368871D01*
X290417Y3448846D02*
Y3395529D01*
X330404D01*
X317075Y3422187D01*
Y3435517D01*
X330404Y3448846D01*
X357062D01*
X370391Y3435517D01*
Y3408859D01*
X357062Y3395529D01*
X970391Y3315555D02*
X890417D01*
Y3355542D01*
X903746Y3368871D01*
X930404D01*
X943733Y3355542D01*
Y3315555D01*
Y3342213D02*
X970391Y3368871D01*
Y3435517D02*
X890417D01*
X930404Y3395529D01*
Y3448846D01*
X970391Y2865555D02*
X890417D01*
Y2905542D01*
X903746Y2918871D01*
X930404D01*
X943733Y2905542D01*
Y2865555D01*
Y2892213D02*
X970391Y2918871D01*
X903746Y2945529D02*
X890417Y2958858D01*
Y2985517D01*
X903746Y2998845D01*
X917075D01*
X930404Y2985517D01*
Y2972187D01*
Y2985517D01*
X943733Y2998845D01*
X957062D01*
X970391Y2985517D01*
Y2958858D01*
X957062Y2945529D01*
X1367075Y3783859D02*
X1353746Y3797187D01*
X1327088D01*
X1313759Y3783859D01*
Y3730542D01*
X1327088Y3717213D01*
X1353746D01*
X1367075Y3730542D01*
X1433721Y3717213D02*
Y3797187D01*
X1393733Y3757201D01*
X1447049D01*
X2453746Y2893871D02*
X2440417Y2880542D01*
Y2853884D01*
X2453746Y2840555D01*
X2507062D01*
X2520391Y2853884D01*
Y2880542D01*
X2507062Y2893871D01*
X2453746Y2920529D02*
X2440417Y2933858D01*
Y2960517D01*
X2453746Y2973845D01*
X2467075D01*
X2480404Y2960517D01*
Y2947187D01*
Y2960517D01*
X2493733Y2973845D01*
X2507062D01*
X2520391Y2960517D01*
Y2933858D01*
X2507062Y2920529D01*
X2426671Y891658D02*
X2413342Y904987D01*
X2386684D01*
X2373355Y891658D01*
Y838342D01*
X2386684Y825013D01*
X2413342D01*
X2426671Y838342D01*
X2506645Y825013D02*
X2453329D01*
X2506645Y878329D01*
Y891658D01*
X2493316Y904987D01*
X2466658D01*
X2453329Y891658D01*
X303746Y2882200D02*
X290417Y2868871D01*
Y2842213D01*
X303746Y2828884D01*
X357062D01*
X370391Y2842213D01*
Y2868871D01*
X357062Y2882200D01*
X370391Y2908858D02*
Y2935516D01*
Y2922187D01*
X290417D01*
X303746Y2908858D01*
D23*
X1413404Y3373700D02*
G03*
X1448404Y3408700I0J35000D01*
G01*
X1378404D02*
G03*
X1413404Y3373700I35000J0D01*
G01*
X640001Y1076250D02*
Y1411250D01*
X460001Y1076250D02*
X640001D01*
X460001D02*
Y1423752D01*
X617501D01*
X620001D02*
X640001D01*
Y1413750D02*
Y1423752D01*
X1273405Y4629201D02*
X1673404D01*
Y4431701D02*
Y4629201D01*
X1273405Y4431701D02*
X1673404D01*
X1273405D02*
Y4629201D01*
X305406Y4527205D02*
X325406D01*
X305406Y4187200D02*
Y4527205D01*
Y4187200D02*
X990408D01*
Y4527205D01*
X325406D02*
X990408D01*
X745405Y4194703D02*
Y4517202D01*
X715408Y4199702D02*
Y4514703D01*
X305406Y4027200D02*
X325406D01*
X305406Y3687201D02*
Y4027200D01*
Y3687201D02*
X990408D01*
Y4027200D01*
X325406D02*
X990408D01*
X745405Y3694704D02*
Y4017203D01*
X715408Y3699703D02*
Y4014704D01*
X415403Y3295955D02*
Y3630950D01*
X595403D01*
Y3283453D02*
Y3630950D01*
X437903Y3283453D02*
X595403D01*
X415403D02*
X435403D01*
X415403D02*
Y3293450D01*
X407905Y3207202D02*
X605405D01*
X407905Y2807203D02*
Y3207202D01*
Y2807203D02*
X605405D01*
Y3207202D01*
X845405Y3170951D02*
Y3180954D01*
X825405D02*
X845405D01*
X665405D02*
X822906D01*
X665405Y2833451D02*
Y3180954D01*
Y2833451D02*
X845405D01*
Y3168452D01*
Y3283453D02*
Y3618454D01*
X665405Y3283453D02*
X845405D01*
X665405D02*
Y3630950D01*
X822906D01*
X825405D02*
X845405D01*
Y3620953D02*
Y3630950D01*
X2145402Y3170951D02*
Y3180954D01*
X2125402D02*
X2145402D01*
X1965403D02*
X2122903D01*
X1965403Y2833451D02*
Y3180954D01*
Y2833451D02*
X2145402D01*
Y3168452D01*
X2207907Y3207202D02*
X2405402D01*
X2207907Y2807203D02*
Y3207202D01*
Y2807203D02*
X2405402D01*
Y3207202D01*
X2215405Y3284703D02*
Y3294705D01*
Y3284703D02*
X2235405D01*
X2237904D02*
X2395404D01*
Y3632205D01*
X2215405D02*
X2395404D01*
X2215405Y3297204D02*
Y3632205D01*
X2075405Y4199702D02*
Y4514703D01*
X2045408Y4197203D02*
Y4519701D01*
X1800404Y4187200D02*
X2465407D01*
X1800404D02*
Y4527205D01*
X2485407D01*
Y4187200D02*
Y4527205D01*
X2465407Y4187200D02*
X2485407D01*
X2075405Y3699703D02*
Y4014704D01*
X2045408Y3697204D02*
Y4019702D01*
X1800404Y3687201D02*
X2465407D01*
X1800404D02*
Y4027200D01*
X2485407D01*
Y3687201D02*
Y4027200D01*
X2465407Y3687201D02*
X2485407D01*
X2145402Y3284703D02*
Y3619703D01*
X1965403Y3284703D02*
X2145402D01*
X1965403D02*
Y3632200D01*
X2122903D01*
X2125402D02*
X2145402D01*
Y3622203D02*
Y3632200D01*
X1560405Y3857203D02*
Y4357202D01*
X1240405Y3857203D02*
X1560405D01*
X1240405D02*
Y4252001D01*
X1345607Y4357202D01*
X1560405D01*
X1303403Y3679200D02*
X1703402D01*
Y3481705D02*
Y3679200D01*
X1303403Y3481705D02*
X1703402D01*
X1303403D02*
Y3679200D01*
X1573405Y2903703D02*
Y3431205D01*
X1248406Y2903703D02*
X1573405D01*
X1248406D02*
Y3431205D01*
X1573405D01*
X1448406Y3408700D02*
Y3431205D01*
X1378404Y3408700D02*
Y3431205D01*
X2339998Y790001D02*
X2740002D01*
Y592501D02*
Y790001D01*
X2339998Y592501D02*
X2740002D01*
X2339998D02*
Y790001D01*
X972374Y4708794D02*
X1005697D01*
X989035Y4725456D02*
Y4692133D01*
X1055680Y4725456D02*
X1047350Y4733786D01*
X1030689D01*
X1022358Y4725456D01*
Y4692133D01*
X1030689Y4683802D01*
X1047350D01*
X1055680Y4692133D01*
X1072342Y4733786D02*
Y4683802D01*
Y4708794D01*
X1105664D01*
Y4733786D01*
Y4683802D01*
X1172309D02*
X1188970D01*
X1180639D01*
Y4733786D01*
X1172309Y4725456D01*
X1213962Y4708794D02*
X1247285D01*
X1584192D02*
X1617514D01*
X1600853Y4725456D02*
Y4692133D01*
X1667498Y4725456D02*
X1659167Y4733786D01*
X1642506D01*
X1634176Y4725456D01*
Y4692133D01*
X1642506Y4683802D01*
X1659167D01*
X1667498Y4692133D01*
X1684159Y4733786D02*
Y4683802D01*
Y4708794D01*
X1717482D01*
Y4733786D01*
Y4683802D01*
X1817449D02*
X1784126D01*
X1817449Y4717125D01*
Y4725456D01*
X1809118Y4733786D01*
X1792457D01*
X1784126Y4725456D01*
X1834110Y4708794D02*
X1867433D01*
D24*
X1385904Y3431200D02*
D03*
D25*
X920726Y4656846D02*
X1286722D01*
X920726Y4752651D02*
X1286722D01*
Y4656846D02*
Y4752651D01*
X920726Y4656846D02*
Y4752651D01*
X1531840Y4659975D02*
X1897836D01*
X1531840Y4755780D02*
X1897836D01*
Y4659975D02*
Y4755780D01*
X1531840Y4659975D02*
Y4755780D01*
%TF.MD5,7432956da0611d6b390e5bc97a42a657*%
M02*
