G04*
G04 #@! TF.GenerationSoftware,Altium Limited,Altium Designer,23.4.1 (23)*
G04*
G04 Layer_Color=65535*
%FSLAX44Y44*%
%MOMM*%
G71*
G04*
G04 #@! TF.SameCoordinates,5EEC9E03-0704-45D2-AC34-B4BBD991BA5A*
G04*
G04*
G04 #@! TF.FilePolarity,Positive*
G04*
G01*
G75*
%ADD10C,0.2540*%
%ADD11C,0.2000*%
%ADD12C,0.2000*%
%ADD13C,0.1000*%
D10*
X128029Y336430D02*
G03*
X128428Y336679I781J-810D01*
G01*
X75322Y47381D02*
Y97381D01*
X45322Y47381D02*
Y97381D01*
X75322D01*
X45322Y47381D02*
X75322D01*
X197000Y10000D02*
Y60000D01*
X87000Y10000D02*
Y60000D01*
Y10000D02*
X197000D01*
X87000Y60000D02*
X197000D01*
X87000Y15000D02*
X197000D01*
X203295Y482779D02*
X208627Y474781D01*
Y482779D02*
X203295Y474781D01*
X216624Y482779D02*
X211292D01*
Y478780D01*
X213958Y480113D01*
X215291D01*
X216624Y478780D01*
Y476114D01*
X215291Y474781D01*
X212625D01*
X211292Y476114D01*
X65795Y482779D02*
X71127Y474781D01*
Y482779D02*
X65795Y474781D01*
X77791D02*
Y482779D01*
X73793Y478780D01*
X79124D01*
X202801Y8623D02*
X210799Y13954D01*
X202801D02*
X210799Y8623D01*
X204134Y16620D02*
X202801Y17953D01*
Y20619D01*
X204134Y21952D01*
X205467D01*
X206800Y20619D01*
Y19286D01*
Y20619D01*
X208133Y21952D01*
X209466D01*
X210799Y20619D01*
Y17953D01*
X209466Y16620D01*
X181047Y463507D02*
Y458175D01*
X183713Y455509D01*
X186378Y458175D01*
Y463507D01*
X189044D02*
Y455509D01*
X193043D01*
X194376Y456842D01*
Y462174D01*
X193043Y463507D01*
X189044D01*
X202373D02*
X199707Y462174D01*
X197041Y459508D01*
Y456842D01*
X198374Y455509D01*
X201040D01*
X202373Y456842D01*
Y458175D01*
X201040Y459508D01*
X197041D01*
X181877Y414719D02*
Y409387D01*
X184543Y406721D01*
X187209Y409387D01*
Y414719D01*
X189875D02*
Y406721D01*
X193873D01*
X195206Y408054D01*
Y413386D01*
X193873Y414719D01*
X189875D01*
X203204D02*
X197872D01*
Y410720D01*
X200538Y412053D01*
X201871D01*
X203204Y410720D01*
Y408054D01*
X201871Y406721D01*
X199205D01*
X197872Y408054D01*
X31877Y414719D02*
Y409387D01*
X34543Y406721D01*
X37209Y409387D01*
Y414719D01*
X39875D02*
Y406721D01*
X43873D01*
X45206Y408054D01*
Y413386D01*
X43873Y414719D01*
X39875D01*
X51871Y406721D02*
Y414719D01*
X47872Y410720D01*
X53204D01*
X31877Y464719D02*
Y459387D01*
X34543Y456721D01*
X37209Y459387D01*
Y464719D01*
X39875D02*
Y456721D01*
X43873D01*
X45206Y458054D01*
Y463386D01*
X43873Y464719D01*
X39875D01*
X47872Y463386D02*
X49205Y464719D01*
X51871D01*
X53204Y463386D01*
Y462053D01*
X51871Y460720D01*
X50538D01*
X51871D01*
X53204Y459387D01*
Y458054D01*
X51871Y456721D01*
X49205D01*
X47872Y458054D01*
X49337Y41999D02*
Y36667D01*
X52003Y34001D01*
X54668Y36667D01*
Y41999D01*
X57334D02*
Y34001D01*
X61333D01*
X62666Y35334D01*
Y40666D01*
X61333Y41999D01*
X57334D01*
X70663Y34001D02*
X65332D01*
X70663Y39333D01*
Y40666D01*
X69330Y41999D01*
X66665D01*
X65332Y40666D01*
X110666Y447830D02*
Y441166D01*
X111998Y439833D01*
X114664D01*
X115997Y441166D01*
Y447830D01*
X123995D02*
X118663D01*
Y443832D01*
X121329Y445165D01*
X122662D01*
X123995Y443832D01*
Y441166D01*
X122662Y439833D01*
X119996D01*
X118663Y441166D01*
X108676Y354419D02*
Y347754D01*
X110009Y346421D01*
X112675D01*
X114008Y347754D01*
Y354419D01*
X120672Y346421D02*
Y354419D01*
X116673Y350420D01*
X122005D01*
X252039Y331555D02*
X244042D01*
Y335554D01*
X245375Y336887D01*
X248040D01*
X249373Y335554D01*
Y331555D01*
Y334221D02*
X252039Y336887D01*
X245375Y339553D02*
X244042Y340886D01*
Y343552D01*
X245375Y344885D01*
X246707D01*
X248040Y343552D01*
X249373Y344885D01*
X250706D01*
X252039Y343552D01*
Y340886D01*
X250706Y339553D01*
X249373D01*
X248040Y340886D01*
X246707Y339553D01*
X245375D01*
X248040Y340886D02*
Y343552D01*
X192039Y331555D02*
X184042D01*
Y335554D01*
X185375Y336887D01*
X188040D01*
X189373Y335554D01*
Y331555D01*
Y334221D02*
X192039Y336887D01*
X184042Y339553D02*
Y344885D01*
X185375D01*
X190706Y339553D01*
X192039D01*
Y286556D02*
X184042D01*
Y290554D01*
X185375Y291887D01*
X188040D01*
X189373Y290554D01*
Y286556D01*
Y289221D02*
X192039Y291887D01*
X184042Y299884D02*
X185375Y297219D01*
X188040Y294553D01*
X190706D01*
X192039Y295886D01*
Y298552D01*
X190706Y299884D01*
X189373D01*
X188040Y298552D01*
Y294553D01*
X37039Y331555D02*
X29042D01*
Y335554D01*
X30375Y336887D01*
X33040D01*
X34373Y335554D01*
Y331555D01*
Y334221D02*
X37039Y336887D01*
X29042Y344885D02*
Y339553D01*
X33040D01*
X31707Y342219D01*
Y343552D01*
X33040Y344885D01*
X35706D01*
X37039Y343552D01*
Y340886D01*
X35706Y339553D01*
X97039Y331555D02*
X89042D01*
Y335554D01*
X90375Y336887D01*
X93040D01*
X94373Y335554D01*
Y331555D01*
Y334221D02*
X97039Y336887D01*
Y343552D02*
X89042D01*
X93040Y339553D01*
Y344885D01*
X97039Y286556D02*
X89042D01*
Y290554D01*
X90375Y291887D01*
X93040D01*
X94373Y290554D01*
Y286556D01*
Y289221D02*
X97039Y291887D01*
X90375Y294553D02*
X89042Y295886D01*
Y298552D01*
X90375Y299884D01*
X91707D01*
X93040Y298552D01*
Y297219D01*
Y298552D01*
X94373Y299884D01*
X95706D01*
X97039Y298552D01*
Y295886D01*
X95706Y294553D01*
X48335Y146001D02*
Y153999D01*
X52334D01*
X53667Y152666D01*
Y150000D01*
X52334Y148667D01*
X48335D01*
X51001D02*
X53667Y146001D01*
X61665D02*
X56333D01*
X61665Y151333D01*
Y152666D01*
X60332Y153999D01*
X57666D01*
X56333Y152666D01*
X141084Y472244D02*
X139751Y473577D01*
X137086D01*
X135753Y472244D01*
Y466913D01*
X137086Y465580D01*
X139751D01*
X141084Y466913D01*
X149082Y473577D02*
X143750D01*
Y469579D01*
X146416Y470911D01*
X147749D01*
X149082Y469579D01*
Y466913D01*
X147749Y465580D01*
X145083D01*
X143750Y466913D01*
X136707Y378386D02*
X135375Y379719D01*
X132709D01*
X131376Y378386D01*
Y373054D01*
X132709Y371721D01*
X135375D01*
X136707Y373054D01*
X143372Y371721D02*
Y379719D01*
X139373Y375720D01*
X144705D01*
X245375Y289387D02*
X244042Y288054D01*
Y285388D01*
X245375Y284056D01*
X250706D01*
X252039Y285388D01*
Y288054D01*
X250706Y289387D01*
X245375Y292053D02*
X244042Y293386D01*
Y296052D01*
X245375Y297384D01*
X246707D01*
X248040Y296052D01*
Y294719D01*
Y296052D01*
X249373Y297384D01*
X250706D01*
X252039Y296052D01*
Y293386D01*
X250706Y292053D01*
X242667Y89166D02*
X241334Y90499D01*
X238668D01*
X237335Y89166D01*
Y83834D01*
X238668Y82501D01*
X241334D01*
X242667Y83834D01*
X250665Y82501D02*
X245333D01*
X250665Y87833D01*
Y89166D01*
X249332Y90499D01*
X246666D01*
X245333Y89166D01*
X30375Y288220D02*
X29042Y286887D01*
Y284221D01*
X30375Y282888D01*
X35706D01*
X37039Y284221D01*
Y286887D01*
X35706Y288220D01*
X37039Y290886D02*
Y293552D01*
Y292219D01*
X29042D01*
X30375Y290886D01*
D11*
X141340Y337370D02*
G03*
X144840Y340870I0J3500D01*
G01*
X137840D02*
G03*
X141340Y337370I3500J0D01*
G01*
X64000Y107625D02*
Y141125D01*
X46000Y107625D02*
X64000D01*
X46000D02*
Y142375D01*
X61750D01*
X62000D02*
X64000D01*
Y141375D02*
Y142375D01*
X127340Y462920D02*
X167340D01*
Y443170D02*
Y462920D01*
X127340Y443170D02*
X167340D01*
X127340D02*
Y462920D01*
X30541Y452720D02*
X32541D01*
X30541Y418720D02*
Y452720D01*
Y418720D02*
X99041D01*
Y452720D01*
X32541D02*
X99041D01*
X74541Y419470D02*
Y451720D01*
X71541Y419970D02*
Y451470D01*
X30541Y402720D02*
X32541D01*
X30541Y368720D02*
Y402720D01*
Y368720D02*
X99041D01*
Y402720D01*
X32541D02*
X99041D01*
X74541Y369470D02*
Y401720D01*
X71541Y369970D02*
Y401470D01*
X41540Y329595D02*
Y363095D01*
X59540D01*
Y328345D02*
Y363095D01*
X43790Y328345D02*
X59540D01*
X41540D02*
X43540D01*
X41540D02*
Y329345D01*
X40791Y320720D02*
X60540D01*
X40791Y280720D02*
Y320720D01*
Y280720D02*
X60540D01*
Y320720D01*
X84541Y317095D02*
Y318095D01*
X82541D02*
X84541D01*
X66540D02*
X82291D01*
X66540Y283345D02*
Y318095D01*
Y283345D02*
X84541D01*
Y316845D01*
Y328345D02*
Y361845D01*
X66540Y328345D02*
X84541D01*
X66540D02*
Y363095D01*
X82291D01*
X82541D02*
X84541D01*
Y362095D02*
Y363095D01*
X214540Y317095D02*
Y318095D01*
X212540D02*
X214540D01*
X196540D02*
X212290D01*
X196540Y283345D02*
Y318095D01*
Y283345D02*
X214540D01*
Y316845D01*
X220791Y320720D02*
X240540D01*
X220791Y280720D02*
Y320720D01*
Y280720D02*
X240540D01*
Y320720D01*
X221541Y328470D02*
Y329470D01*
Y328470D02*
X223540D01*
X223790D02*
X239540D01*
Y363220D01*
X221541D02*
X239540D01*
X221541Y329720D02*
Y363220D01*
X207540Y419970D02*
Y451470D01*
X204541Y419720D02*
Y451970D01*
X180040Y418720D02*
X246541D01*
X180040D02*
Y452720D01*
X248541D01*
Y418720D02*
Y452720D01*
X246541Y418720D02*
X248541D01*
X207540Y369970D02*
Y401470D01*
X204541Y369720D02*
Y401970D01*
X180040Y368720D02*
X246541D01*
X180040D02*
Y402720D01*
X248541D01*
Y368720D02*
Y402720D01*
X246541Y368720D02*
X248541D01*
X214540Y328470D02*
Y361970D01*
X196540Y328470D02*
X214540D01*
X196540D02*
Y363220D01*
X212290D01*
X212540D02*
X214540D01*
Y362220D02*
Y363220D01*
X156040Y385720D02*
Y435720D01*
X124040Y385720D02*
X156040D01*
X124040D02*
Y425200D01*
X134561Y435720D01*
X156040D01*
X130340Y367920D02*
X170340D01*
Y348171D02*
Y367920D01*
X130340Y348171D02*
X170340D01*
X130340D02*
Y367920D01*
X157340Y290370D02*
Y343120D01*
X124841Y290370D02*
X157340D01*
X124841D02*
Y343120D01*
X157340D01*
X144841Y340870D02*
Y343120D01*
X137840Y340870D02*
Y343120D01*
X234000Y79000D02*
X274000D01*
Y59250D02*
Y79000D01*
X234000Y59250D02*
X274000D01*
X234000D02*
Y79000D01*
X97237Y470879D02*
X100570D01*
X98904Y472546D02*
Y469213D01*
X105568Y472546D02*
X104735Y473379D01*
X103069D01*
X102236Y472546D01*
Y469213D01*
X103069Y468380D01*
X104735D01*
X105568Y469213D01*
X107234Y473379D02*
Y468380D01*
Y470879D01*
X110566D01*
Y473379D01*
Y468380D01*
X117231D02*
X118897D01*
X118064D01*
Y473379D01*
X117231Y472546D01*
X121396Y470879D02*
X124728D01*
X158419D02*
X161751D01*
X160085Y472546D02*
Y469213D01*
X166750Y472546D02*
X165917Y473379D01*
X164251D01*
X163418Y472546D01*
Y469213D01*
X164251Y468380D01*
X165917D01*
X166750Y469213D01*
X168416Y473379D02*
Y468380D01*
Y470879D01*
X171748D01*
Y473379D01*
Y468380D01*
X181745D02*
X178413D01*
X181745Y471712D01*
Y472546D01*
X180912Y473379D01*
X179246D01*
X178413Y472546D01*
X183411Y470879D02*
X186743D01*
D12*
X138590Y343120D02*
D03*
D13*
X92073Y465685D02*
X128672D01*
X92073Y475265D02*
X128672D01*
Y465685D02*
Y475265D01*
X92073Y465685D02*
Y475265D01*
X153184Y465998D02*
X189784D01*
X153184Y475578D02*
X189784D01*
Y465998D02*
Y475578D01*
X153184Y465998D02*
Y475578D01*
M02*
