M48
;Layer_Color=9474304
;FILE_FORMAT=4:4
METRIC,LZ
;TYPE=PLATED
T1F00S00C0.5000
T2F00S00C1.0000
;TYPE=NON_PLATED
T3F00S00C3.0000
%
T01
X001345Y003195
T02
X000145Y000964
Y001218
Y001472
Y001726
Y00198
X0006Y000854
Y0006
X001024Y00035
X00142
X001816
X00267Y000964
Y001218
Y001472
Y001726
Y00198
Y002234
Y002488
Y002742
Y002996
Y00325
Y003504
Y003758
Y004012
Y004266
Y00452
X000145
Y004266
Y004012
Y003758
Y003504
Y00325
Y002996
Y002742
Y002488
Y002234
T03
X0002335Y0002334
X0025835
Y0048975
X0002335
M30
