G04*
G04 #@! TF.GenerationSoftware,Altium Limited,Altium Designer,23.4.1 (23)*
G04*
G04 Layer_Physical_Order=1*
G04 Layer_Color=255*
%FSLAX44Y44*%
%MOMM*%
G71*
G04*
G04 #@! TF.SameCoordinates,5EEC9E03-0704-45D2-AC34-B4BBD991BA5A*
G04*
G04*
G04 #@! TF.FilePolarity,Positive*
G04*
G01*
G75*
%ADD10C,0.2540*%
G04:AMPARAMS|DCode=14|XSize=1mm|YSize=1.3mm|CornerRadius=0.25mm|HoleSize=0mm|Usage=FLASHONLY|Rotation=270.000|XOffset=0mm|YOffset=0mm|HoleType=Round|Shape=RoundedRectangle|*
%AMROUNDEDRECTD14*
21,1,1.0000,0.8000,0,0,270.0*
21,1,0.5000,1.3000,0,0,270.0*
1,1,0.5000,-0.4000,-0.2500*
1,1,0.5000,-0.4000,0.2500*
1,1,0.5000,0.4000,0.2500*
1,1,0.5000,0.4000,-0.2500*
%
%ADD14ROUNDEDRECTD14*%
G04:AMPARAMS|DCode=15|XSize=2mm|YSize=3mm|CornerRadius=0.5mm|HoleSize=0mm|Usage=FLASHONLY|Rotation=0.000|XOffset=0mm|YOffset=0mm|HoleType=Round|Shape=RoundedRectangle|*
%AMROUNDEDRECTD15*
21,1,2.0000,2.0000,0,0,0.0*
21,1,1.0000,3.0000,0,0,0.0*
1,1,1.0000,0.5000,-1.0000*
1,1,1.0000,-0.5000,-1.0000*
1,1,1.0000,-0.5000,1.0000*
1,1,1.0000,0.5000,1.0000*
%
%ADD15ROUNDEDRECTD15*%
G04:AMPARAMS|DCode=16|XSize=1.3mm|YSize=1.5mm|CornerRadius=0.325mm|HoleSize=0mm|Usage=FLASHONLY|Rotation=180.000|XOffset=0mm|YOffset=0mm|HoleType=Round|Shape=RoundedRectangle|*
%AMROUNDEDRECTD16*
21,1,1.3000,0.8500,0,0,180.0*
21,1,0.6500,1.5000,0,0,180.0*
1,1,0.6500,-0.3250,0.4250*
1,1,0.6500,0.3250,0.4250*
1,1,0.6500,0.3250,-0.4250*
1,1,0.6500,-0.3250,-0.4250*
%
%ADD16ROUNDEDRECTD16*%
%ADD17R,2.0000X1.6800*%
G04:AMPARAMS|DCode=18|XSize=1.3mm|YSize=1.5mm|CornerRadius=0.325mm|HoleSize=0mm|Usage=FLASHONLY|Rotation=90.000|XOffset=0mm|YOffset=0mm|HoleType=Round|Shape=RoundedRectangle|*
%AMROUNDEDRECTD18*
21,1,1.3000,0.8500,0,0,90.0*
21,1,0.6500,1.5000,0,0,90.0*
1,1,0.6500,0.4250,0.3250*
1,1,0.6500,0.4250,-0.3250*
1,1,0.6500,-0.4250,-0.3250*
1,1,0.6500,-0.4250,0.3250*
%
%ADD18ROUNDEDRECTD18*%
%ADD19R,2.3900X2.3900*%
%ADD20O,1.4500X0.6000*%
G04:AMPARAMS|DCode=21|XSize=1.5mm|YSize=0.6mm|CornerRadius=0.24mm|HoleSize=0mm|Usage=FLASHONLY|Rotation=0.000|XOffset=0mm|YOffset=0mm|HoleType=Round|Shape=RoundedRectangle|*
%AMROUNDEDRECTD21*
21,1,1.5000,0.1200,0,0,0.0*
21,1,1.0200,0.6000,0,0,0.0*
1,1,0.4800,0.5100,-0.0600*
1,1,0.4800,-0.5100,-0.0600*
1,1,0.4800,-0.5100,0.0600*
1,1,0.4800,0.5100,0.0600*
%
%ADD21ROUNDEDRECTD21*%
%ADD34R,1.8000X1.8000*%
%ADD35C,1.8000*%
%ADD36C,0.8000*%
G36*
X12577Y514500D02*
X12577Y514500D01*
X271500Y514500D01*
X272534Y514500D01*
X274563Y514096D01*
X276474Y513305D01*
X278193Y512156D01*
X279656Y510693D01*
X280805Y508974D01*
X281596Y507063D01*
X281839Y505844D01*
X282000Y504003D01*
Y504000D01*
X282000Y504000D01*
X282000Y504000D01*
X282000Y10000D01*
X282000Y9114D01*
X281654Y7375D01*
X280976Y5737D01*
X279991Y4263D01*
X278737Y3009D01*
X277263Y2024D01*
X275625Y1346D01*
X274915Y1205D01*
X273000Y1000D01*
Y1000D01*
X10200Y1000D01*
X9195Y1000D01*
X7225Y1392D01*
X5368Y2161D01*
X3698Y3277D01*
X2277Y4698D01*
X1161Y6368D01*
X392Y8225D01*
X-0Y10195D01*
X0Y11200D01*
Y505895D01*
X196Y506938D01*
X986Y508908D01*
X2146Y510685D01*
X3630Y512203D01*
X5382Y513401D01*
X7334Y514235D01*
X9411Y514672D01*
X11534Y514695D01*
X12577Y514500D01*
D02*
G37*
%LPC*%
G36*
X192000Y509605D02*
X188270D01*
Y493270D01*
X199605D01*
Y502000D01*
X199346Y503969D01*
X198586Y505803D01*
X197378Y507378D01*
X195803Y508586D01*
X193968Y509346D01*
X192000Y509605D01*
D02*
G37*
G36*
X185730D02*
X182000D01*
X180032Y509346D01*
X178197Y508586D01*
X176622Y507378D01*
X175414Y505803D01*
X174654Y503969D01*
X174395Y502000D01*
Y493270D01*
X185730D01*
Y509605D01*
D02*
G37*
G36*
X132000D02*
X128270D01*
Y493270D01*
X139605D01*
Y502000D01*
X139346Y503969D01*
X138586Y505803D01*
X137378Y507378D01*
X135802Y508586D01*
X133968Y509346D01*
X132000Y509605D01*
D02*
G37*
G36*
X125730D02*
X122000D01*
X120031Y509346D01*
X118197Y508586D01*
X116622Y507378D01*
X115414Y505803D01*
X114654Y503969D01*
X114395Y502000D01*
Y493270D01*
X125730D01*
Y509605D01*
D02*
G37*
G36*
X260077Y507290D02*
X259620D01*
Y491020D01*
X275890D01*
Y491478D01*
X275216Y494866D01*
X273894Y498058D01*
X271974Y500931D01*
X269531Y503374D01*
X266658Y505294D01*
X263466Y506616D01*
X260077Y507290D01*
D02*
G37*
G36*
X257080D02*
X256623D01*
X253234Y506616D01*
X250042Y505294D01*
X247169Y503374D01*
X244726Y500931D01*
X242806Y498058D01*
X241484Y494866D01*
X240810Y491478D01*
Y491020D01*
X257080D01*
Y507290D01*
D02*
G37*
G36*
X25078D02*
X24620D01*
Y491020D01*
X40890D01*
Y491478D01*
X40216Y494866D01*
X38894Y498058D01*
X36974Y500931D01*
X34531Y503374D01*
X31658Y505294D01*
X28466Y506616D01*
X25078Y507290D01*
D02*
G37*
G36*
X22080D02*
X21623D01*
X18234Y506616D01*
X15042Y505294D01*
X12169Y503374D01*
X9726Y500931D01*
X7806Y498058D01*
X6484Y494866D01*
X5810Y491478D01*
Y491020D01*
X22080D01*
Y507290D01*
D02*
G37*
G36*
X199605Y490730D02*
X188270D01*
Y474395D01*
X192000D01*
X193968Y474654D01*
X195803Y475414D01*
X197378Y476623D01*
X198586Y478198D01*
X199346Y480032D01*
X199605Y482000D01*
Y490730D01*
D02*
G37*
G36*
X185730D02*
X174395D01*
Y482000D01*
X174654Y480032D01*
X175414Y478198D01*
X176622Y476623D01*
X178197Y475414D01*
X180032Y474654D01*
X182000Y474395D01*
X185730D01*
Y490730D01*
D02*
G37*
G36*
X139605D02*
X128270D01*
Y474395D01*
X132000D01*
X133968Y474654D01*
X135802Y475414D01*
X137378Y476623D01*
X138586Y478198D01*
X139346Y480032D01*
X139605Y482000D01*
Y490730D01*
D02*
G37*
G36*
X125730D02*
X114395D01*
Y482000D01*
X114654Y480032D01*
X115414Y478198D01*
X116622Y476623D01*
X118197Y475414D01*
X120031Y474654D01*
X122000Y474395D01*
X125730D01*
Y490730D01*
D02*
G37*
G36*
X275890Y488480D02*
X259620D01*
Y472210D01*
X260077D01*
X263466Y472884D01*
X266658Y474206D01*
X269531Y476126D01*
X271974Y478569D01*
X273894Y481442D01*
X275216Y484634D01*
X275890Y488022D01*
Y488480D01*
D02*
G37*
G36*
X257080D02*
X240810D01*
Y488022D01*
X241484Y484634D01*
X242806Y481442D01*
X244726Y478569D01*
X247169Y476126D01*
X250042Y474206D01*
X253234Y472884D01*
X256623Y472210D01*
X257080D01*
Y488480D01*
D02*
G37*
G36*
X40890D02*
X24620D01*
Y472210D01*
X25078D01*
X28466Y472884D01*
X31658Y474206D01*
X34531Y476126D01*
X36974Y478569D01*
X38894Y481442D01*
X40216Y484634D01*
X40890Y488022D01*
Y488480D01*
D02*
G37*
G36*
X22080D02*
X5810D01*
Y488022D01*
X6484Y484634D01*
X7806Y481442D01*
X9726Y478569D01*
X12169Y476126D01*
X15042Y474206D01*
X18234Y472884D01*
X21623Y472210D01*
X22080D01*
Y488480D01*
D02*
G37*
G36*
X139591Y463074D02*
X137611D01*
Y454190D01*
X145494D01*
Y457170D01*
X145045Y459429D01*
X143765Y461344D01*
X141850Y462624D01*
X139591Y463074D01*
D02*
G37*
G36*
X135071D02*
X133091D01*
X130832Y462624D01*
X128916Y461344D01*
X127637Y459429D01*
X127187Y457170D01*
Y454190D01*
X135071D01*
Y463074D01*
D02*
G37*
G36*
X278540Y463540D02*
X255460D01*
Y440460D01*
X278540D01*
Y463540D01*
D02*
G37*
G36*
X16019D02*
X12981D01*
X10046Y462754D01*
X7414Y461234D01*
X5266Y459086D01*
X3746Y456454D01*
X2960Y453519D01*
Y450481D01*
X3746Y447546D01*
X5266Y444914D01*
X7414Y442766D01*
X10046Y441247D01*
X12981Y440460D01*
X16019D01*
X18954Y441247D01*
X21586Y442766D01*
X23734Y444914D01*
X25254Y447546D01*
X26040Y450481D01*
Y453519D01*
X25254Y456454D01*
X23734Y459086D01*
X21586Y461234D01*
X18954Y462754D01*
X16019Y463540D01*
D02*
G37*
G36*
X246080Y446660D02*
X234811D01*
Y436990D01*
X246080D01*
Y446660D01*
D02*
G37*
G36*
X232271D02*
X221000D01*
Y436990D01*
X232271D01*
Y446660D01*
D02*
G37*
G36*
X246080Y434450D02*
X234811D01*
Y424780D01*
X246080D01*
Y434450D01*
D02*
G37*
G36*
X232271D02*
X221000D01*
Y424780D01*
X232271D01*
Y434450D01*
D02*
G37*
G36*
X162000Y509605D02*
X152000D01*
X150032Y509346D01*
X148197Y508586D01*
X146622Y507378D01*
X145414Y505803D01*
X144654Y503969D01*
X144395Y502000D01*
Y482000D01*
X144654Y480032D01*
X145414Y478198D01*
X146622Y476623D01*
X148197Y475414D01*
X150032Y474654D01*
X152000Y474395D01*
X161611D01*
X187346Y448660D01*
X186518Y446660D01*
X180001D01*
Y424780D01*
X185574D01*
X186340Y422933D01*
X184362Y420955D01*
X175608D01*
X175535Y421064D01*
X173702Y422289D01*
X173140Y422401D01*
Y424440D01*
X173702Y424552D01*
X175535Y425776D01*
X176759Y427608D01*
X177189Y429770D01*
X176759Y431932D01*
X175535Y433764D01*
X173702Y434989D01*
X171541Y435419D01*
X167136D01*
X162225Y440329D01*
Y442893D01*
X163850Y443216D01*
X165765Y444496D01*
X167045Y446411D01*
X167494Y448670D01*
Y457170D01*
X167045Y459429D01*
X165765Y461344D01*
X163850Y462624D01*
X161591Y463074D01*
X155091D01*
X152831Y462624D01*
X150916Y461344D01*
X149637Y459429D01*
X149187Y457170D01*
Y448670D01*
X149637Y446411D01*
X150916Y444496D01*
X152831Y443216D01*
X154456Y442893D01*
Y438720D01*
X154752Y437233D01*
X155594Y435973D01*
X156065Y435503D01*
X155299Y433655D01*
X145421D01*
X138487Y440589D01*
X138221Y440767D01*
X138828Y442767D01*
X139591D01*
X141850Y443216D01*
X143765Y444496D01*
X145045Y446411D01*
X145494Y448670D01*
Y451650D01*
X136341D01*
X127187D01*
Y448670D01*
X127637Y446411D01*
X128916Y444496D01*
X130067Y443727D01*
X129461Y441727D01*
X99080D01*
Y446660D01*
X74001D01*
Y424780D01*
X92025D01*
X92790Y422933D01*
X91696Y421838D01*
X90854Y420578D01*
X90558Y419091D01*
Y396660D01*
X74001D01*
Y389605D01*
X69824D01*
X66885Y392544D01*
Y403000D01*
X66589Y404487D01*
X65747Y405747D01*
X49426Y422068D01*
Y424780D01*
X58081D01*
Y440179D01*
X92297Y474395D01*
X102000D01*
X103968Y474654D01*
X105802Y475414D01*
X107378Y476623D01*
X108586Y478198D01*
X109346Y480032D01*
X109605Y482000D01*
Y502000D01*
X109346Y503969D01*
X108586Y505803D01*
X107378Y507378D01*
X105802Y508586D01*
X103968Y509346D01*
X102000Y509605D01*
X92000D01*
X90032Y509346D01*
X88197Y508586D01*
X86622Y507378D01*
X85414Y505803D01*
X84654Y503969D01*
X84395Y502000D01*
Y482000D01*
X84654Y480032D01*
X85325Y478411D01*
X53574Y446660D01*
X33001D01*
Y424780D01*
X41656D01*
Y420459D01*
X41952Y418973D01*
X42794Y417712D01*
X59115Y401391D01*
Y398232D01*
X58081Y396660D01*
X46811D01*
Y385720D01*
Y374780D01*
X50282D01*
X51048Y372933D01*
X50524Y372409D01*
X49682Y371148D01*
X49386Y369662D01*
Y363484D01*
X46541D01*
X44574Y363093D01*
X42907Y361979D01*
X41793Y360312D01*
X41402Y358345D01*
Y353345D01*
X41793Y351379D01*
X42907Y349712D01*
X44574Y348598D01*
X46541Y348207D01*
X54541D01*
X55643Y348426D01*
X57596Y347392D01*
X57861Y347097D01*
X57957Y346451D01*
X54707Y343201D01*
X54541Y343234D01*
X46541D01*
X44574Y342843D01*
X42907Y341729D01*
X41793Y340062D01*
X41402Y338096D01*
Y333096D01*
X41793Y331129D01*
X42907Y329462D01*
X44574Y328348D01*
X46541Y327957D01*
X54541D01*
X56507Y328348D01*
X58174Y329462D01*
X59288Y331129D01*
X59679Y333096D01*
Y337186D01*
X63000Y340506D01*
X66402Y337105D01*
Y333096D01*
X66793Y331129D01*
X67907Y329462D01*
X69574Y328348D01*
X71540Y327957D01*
X79540D01*
X81507Y328348D01*
X83174Y329462D01*
X84288Y331129D01*
X84679Y333096D01*
Y338096D01*
X84288Y340062D01*
X83174Y341729D01*
X81507Y342843D01*
X79540Y343234D01*
X71540D01*
X71306Y343188D01*
X68222Y346272D01*
X68333Y347021D01*
X68546Y347291D01*
X70560Y348402D01*
X71540Y348207D01*
X74270D01*
Y355845D01*
Y363484D01*
X73691D01*
X72862Y365484D01*
X76333Y368955D01*
X97838D01*
X99325Y369251D01*
X100585Y370093D01*
X103125Y372633D01*
X103967Y373893D01*
X104263Y375380D01*
Y385460D01*
X106263Y386529D01*
X106379Y386451D01*
X108541Y386021D01*
X111521D01*
Y391670D01*
X114061D01*
Y386021D01*
X117041D01*
X119202Y386451D01*
X121035Y387676D01*
X122259Y389508D01*
X122460Y390516D01*
X124630Y391174D01*
X144876Y370928D01*
X144761Y369399D01*
X142900Y368012D01*
X142591Y368074D01*
X140611D01*
Y357920D01*
Y347767D01*
X142591D01*
X143770Y348001D01*
X145770Y346609D01*
Y310187D01*
X130063Y294480D01*
X126474D01*
X125072Y296250D01*
X104610D01*
X103208Y294480D01*
X84403D01*
X84288Y295062D01*
X83174Y296729D01*
X81507Y297843D01*
X79540Y298234D01*
X71540D01*
X69574Y297843D01*
X67907Y296729D01*
X66823Y295107D01*
X60269D01*
X60245Y295229D01*
X58965Y297144D01*
X57050Y298424D01*
X54791Y298873D01*
X46291D01*
X44031Y298424D01*
X42116Y297144D01*
X40837Y295229D01*
X40387Y292970D01*
Y286470D01*
X40837Y284211D01*
X42116Y282296D01*
X44031Y281016D01*
X46291Y280567D01*
X54791D01*
X57050Y281016D01*
X58965Y282296D01*
X60245Y284211D01*
X60694Y286470D01*
Y287337D01*
X66552D01*
X66793Y286129D01*
X67907Y284462D01*
X69574Y283348D01*
X71540Y282957D01*
X79540D01*
X81507Y283348D01*
X83174Y284462D01*
X84288Y286129D01*
X84403Y286711D01*
X131672D01*
X133158Y287006D01*
X134419Y287848D01*
X150628Y304058D01*
X152628Y303229D01*
Y57261D01*
X152923Y55774D01*
X153766Y54514D01*
X170419Y37860D01*
X170060Y36519D01*
Y33481D01*
X170847Y30546D01*
X172366Y27914D01*
X174514Y25766D01*
X177146Y24246D01*
X180081Y23460D01*
X183119D01*
X186054Y24246D01*
X188686Y25766D01*
X190834Y27914D01*
X192354Y30546D01*
X193140Y33481D01*
Y36519D01*
X192354Y39454D01*
X190834Y42086D01*
X188686Y44234D01*
X186054Y45754D01*
X183119Y46540D01*
X180081D01*
X177146Y45754D01*
X174843Y44424D01*
X160397Y58870D01*
Y290322D01*
X161956Y291592D01*
X163321Y291297D01*
X163986Y291006D01*
X164251Y289673D01*
X165093Y288413D01*
X184253Y269253D01*
X185513Y268411D01*
X187000Y268115D01*
X242191D01*
X256541Y253765D01*
X256246Y253254D01*
X255460Y250319D01*
Y247281D01*
X256246Y244346D01*
X257766Y241714D01*
X259914Y239566D01*
X262546Y238047D01*
X265481Y237260D01*
X268519D01*
X271454Y238047D01*
X274086Y239566D01*
X276234Y241714D01*
X277753Y244346D01*
X278540Y247281D01*
Y250319D01*
X277753Y253254D01*
X276234Y255886D01*
X274086Y258034D01*
X271454Y259554D01*
X268519Y260340D01*
X265481D01*
X262546Y259554D01*
X262035Y259259D01*
X246547Y274747D01*
X245287Y275589D01*
X243800Y275885D01*
X188609D01*
X174366Y290128D01*
X174854Y292209D01*
X174980Y292342D01*
X176502Y293359D01*
X177594Y294993D01*
X177977Y296920D01*
Y298120D01*
X177594Y300048D01*
X176502Y301682D01*
X174868Y302774D01*
X174480Y302851D01*
Y304890D01*
X174868Y304967D01*
X176502Y306059D01*
X176600Y306205D01*
X196909D01*
X197907Y304712D01*
X199574Y303598D01*
X201541Y303207D01*
X209541D01*
X211117Y303520D01*
X212075Y302355D01*
X212297Y301871D01*
X208660Y298234D01*
X201541D01*
X199574Y297843D01*
X197907Y296729D01*
X196793Y295062D01*
X196402Y293095D01*
Y288095D01*
X196793Y286129D01*
X197907Y284462D01*
X199574Y283348D01*
X201541Y282957D01*
X209541D01*
X211507Y283348D01*
X213174Y284462D01*
X214288Y286129D01*
X214679Y288095D01*
Y293095D01*
X214651Y293238D01*
X217524Y296111D01*
X220433Y293202D01*
X220387Y292970D01*
Y286470D01*
X220836Y284211D01*
X222116Y282296D01*
X224031Y281016D01*
X226290Y280567D01*
X234790D01*
X237049Y281016D01*
X238965Y282296D01*
X240244Y284211D01*
X240694Y286470D01*
Y292970D01*
X240244Y295229D01*
X238965Y297144D01*
X237049Y298424D01*
X234790Y298873D01*
X226290D01*
X225839Y298784D01*
X223421Y301202D01*
X224535Y302916D01*
X226290Y302567D01*
X229270D01*
Y311721D01*
Y320874D01*
X226290D01*
X224031Y320424D01*
X222116Y319145D01*
X221693Y318512D01*
X219152Y318234D01*
X213653Y323733D01*
X212393Y324575D01*
X210906Y324871D01*
X194989D01*
X191131Y328729D01*
Y356420D01*
X194450Y358909D01*
X195066Y358770D01*
X196402Y357873D01*
Y357240D01*
X205541D01*
Y355970D01*
X206810D01*
Y348332D01*
X209541D01*
X210943Y348611D01*
X211972Y346811D01*
X208520Y343359D01*
X201541D01*
X199574Y342968D01*
X197907Y341854D01*
X196793Y340187D01*
X196402Y338220D01*
Y333220D01*
X196793Y331254D01*
X197907Y329587D01*
X199574Y328473D01*
X201541Y328082D01*
X209541D01*
X211507Y328473D01*
X213174Y329587D01*
X214288Y331254D01*
X214679Y333220D01*
Y338220D01*
X214628Y338480D01*
X217809Y341661D01*
X221402Y338069D01*
Y333220D01*
X221793Y331254D01*
X222907Y329587D01*
X224574Y328473D01*
X226540Y328082D01*
X234540D01*
X236507Y328473D01*
X238174Y329587D01*
X239288Y331254D01*
X239679Y333220D01*
Y338220D01*
X239288Y340187D01*
X238174Y341854D01*
X236507Y342968D01*
X234540Y343359D01*
X227098D01*
X223267Y347191D01*
X224542Y348744D01*
X224574Y348723D01*
X226540Y348332D01*
X234540D01*
X236507Y348723D01*
X238174Y349837D01*
X239288Y351504D01*
X239679Y353470D01*
Y358470D01*
X239288Y360437D01*
X238174Y362104D01*
X236507Y363218D01*
X234540Y363609D01*
X230885D01*
Y374780D01*
X246080D01*
Y396660D01*
X228695D01*
Y402620D01*
X228399Y404107D01*
X227557Y405367D01*
X213107Y419817D01*
X211847Y420659D01*
X210360Y420955D01*
X197551D01*
X197259Y421262D01*
X196378Y422800D01*
X196948Y424780D01*
X205081D01*
Y446660D01*
X196425D01*
Y448959D01*
X196130Y450446D01*
X195288Y451706D01*
X168648Y478346D01*
X169346Y480032D01*
X169605Y482000D01*
Y502000D01*
X169346Y503969D01*
X168586Y505803D01*
X167378Y507378D01*
X165803Y508586D01*
X163968Y509346D01*
X162000Y509605D01*
D02*
G37*
G36*
X268519Y438140D02*
X265481D01*
X262546Y437354D01*
X259914Y435834D01*
X257766Y433686D01*
X256246Y431054D01*
X255460Y428119D01*
Y425081D01*
X256246Y422146D01*
X257766Y419514D01*
X259914Y417366D01*
X262546Y415847D01*
X265481Y415060D01*
X268519D01*
X271454Y415847D01*
X274086Y417366D01*
X276234Y419514D01*
X277753Y422146D01*
X278540Y425081D01*
Y428119D01*
X277753Y431054D01*
X276234Y433686D01*
X274086Y435834D01*
X271454Y437354D01*
X268519Y438140D01*
D02*
G37*
G36*
X16019D02*
X12981D01*
X10046Y437354D01*
X7414Y435834D01*
X5266Y433686D01*
X3746Y431054D01*
X2960Y428119D01*
Y425081D01*
X3746Y422146D01*
X5266Y419514D01*
X7414Y417366D01*
X10046Y415847D01*
X12981Y415060D01*
X16019D01*
X18954Y415847D01*
X21586Y417366D01*
X23734Y419514D01*
X25254Y422146D01*
X26040Y425081D01*
Y428119D01*
X25254Y431054D01*
X23734Y433686D01*
X21586Y435834D01*
X18954Y437354D01*
X16019Y438140D01*
D02*
G37*
G36*
X268519Y412740D02*
X265481D01*
X262546Y411954D01*
X259914Y410434D01*
X257766Y408286D01*
X256246Y405654D01*
X255460Y402719D01*
Y399681D01*
X256246Y396746D01*
X257766Y394114D01*
X259914Y391966D01*
X262546Y390447D01*
X265481Y389660D01*
X268519D01*
X271454Y390447D01*
X274086Y391966D01*
X276234Y394114D01*
X277753Y396746D01*
X278540Y399681D01*
Y402719D01*
X277753Y405654D01*
X276234Y408286D01*
X274086Y410434D01*
X271454Y411954D01*
X268519Y412740D01*
D02*
G37*
G36*
X16019D02*
X12981D01*
X10046Y411954D01*
X7414Y410434D01*
X5266Y408286D01*
X3746Y405654D01*
X2960Y402719D01*
Y399681D01*
X3746Y396746D01*
X5266Y394114D01*
X7414Y391966D01*
X10046Y390447D01*
X12981Y389660D01*
X16019D01*
X18954Y390447D01*
X21586Y391966D01*
X23734Y394114D01*
X25254Y396746D01*
X26040Y399681D01*
Y402719D01*
X25254Y405654D01*
X23734Y408286D01*
X21586Y410434D01*
X18954Y411954D01*
X16019Y412740D01*
D02*
G37*
G36*
X44271Y396660D02*
X33001D01*
Y386990D01*
X44271D01*
Y396660D01*
D02*
G37*
G36*
Y384450D02*
X33001D01*
Y374780D01*
X44271D01*
Y384450D01*
D02*
G37*
G36*
X268519Y387340D02*
X265481D01*
X262546Y386554D01*
X259914Y385034D01*
X257766Y382886D01*
X256246Y380254D01*
X255460Y377319D01*
Y374281D01*
X256246Y371346D01*
X257766Y368714D01*
X259914Y366566D01*
X262546Y365047D01*
X265481Y364260D01*
X268519D01*
X271454Y365047D01*
X274086Y366566D01*
X276234Y368714D01*
X277753Y371346D01*
X278540Y374281D01*
Y377319D01*
X277753Y380254D01*
X276234Y382886D01*
X274086Y385034D01*
X271454Y386554D01*
X268519Y387340D01*
D02*
G37*
G36*
X16019D02*
X12981D01*
X10046Y386554D01*
X7414Y385034D01*
X5266Y382886D01*
X3746Y380254D01*
X2960Y377319D01*
Y374281D01*
X3746Y371346D01*
X5266Y368714D01*
X7414Y366566D01*
X10046Y365047D01*
X12981Y364260D01*
X16019D01*
X18954Y365047D01*
X21586Y366566D01*
X23734Y368714D01*
X25254Y371346D01*
X26040Y374281D01*
Y377319D01*
X25254Y380254D01*
X23734Y382886D01*
X21586Y385034D01*
X18954Y386554D01*
X16019Y387340D01*
D02*
G37*
G36*
X138070Y368074D02*
X136090D01*
X133831Y367624D01*
X131916Y366344D01*
X130636Y364429D01*
X130187Y362170D01*
Y359190D01*
X138070D01*
Y368074D01*
D02*
G37*
G36*
X79540Y363484D02*
X76810D01*
Y357115D01*
X84679D01*
Y358345D01*
X84288Y360312D01*
X83174Y361979D01*
X81507Y363093D01*
X79540Y363484D01*
D02*
G37*
G36*
X204270Y354700D02*
X196402D01*
Y353470D01*
X196793Y351504D01*
X197907Y349837D01*
X199574Y348723D01*
X201541Y348332D01*
X204270D01*
Y354700D01*
D02*
G37*
G36*
X84679Y354575D02*
X76810D01*
Y348207D01*
X79540D01*
X81507Y348598D01*
X83174Y349712D01*
X84288Y351379D01*
X84679Y353345D01*
Y354575D01*
D02*
G37*
G36*
X138070Y356650D02*
X130187D01*
Y353670D01*
X130636Y351411D01*
X131916Y349496D01*
X133831Y348216D01*
X136090Y347767D01*
X138070D01*
Y356650D01*
D02*
G37*
G36*
X268519Y361940D02*
X265481D01*
X262546Y361154D01*
X259914Y359634D01*
X257766Y357486D01*
X256246Y354854D01*
X255460Y351919D01*
Y348881D01*
X256246Y345946D01*
X257766Y343314D01*
X259914Y341166D01*
X262546Y339647D01*
X265481Y338860D01*
X268519D01*
X271454Y339647D01*
X274086Y341166D01*
X276234Y343314D01*
X277753Y345946D01*
X278540Y348881D01*
Y351919D01*
X277753Y354854D01*
X276234Y357486D01*
X274086Y359634D01*
X271454Y361154D01*
X268519Y361940D01*
D02*
G37*
G36*
X16019D02*
X12981D01*
X10046Y361154D01*
X7414Y359634D01*
X5266Y357486D01*
X3746Y354854D01*
X2960Y351919D01*
Y348881D01*
X3746Y345946D01*
X5266Y343314D01*
X7414Y341166D01*
X10046Y339647D01*
X12981Y338860D01*
X16019D01*
X18954Y339647D01*
X21586Y341166D01*
X23734Y343314D01*
X25254Y345946D01*
X26040Y348881D01*
Y351919D01*
X25254Y354854D01*
X23734Y357486D01*
X21586Y359634D01*
X18954Y361154D01*
X16019Y361940D01*
D02*
G37*
G36*
X119941Y341257D02*
X109741D01*
X107813Y340874D01*
X106179Y339782D01*
X105087Y338148D01*
X104704Y336220D01*
Y335020D01*
X105087Y333093D01*
X106179Y331459D01*
X107813Y330367D01*
X108201Y330290D01*
Y328251D01*
X107813Y328174D01*
X106179Y327082D01*
X105087Y325448D01*
X105046Y325239D01*
X104141Y324635D01*
X94236Y314730D01*
X84403D01*
X84288Y315312D01*
X83174Y316979D01*
X81507Y318093D01*
X79540Y318484D01*
X71540D01*
X69574Y318093D01*
X67907Y316979D01*
X66793Y315312D01*
X66402Y313345D01*
Y308345D01*
X66793Y306379D01*
X67907Y304712D01*
X69574Y303598D01*
X71540Y303207D01*
X79540D01*
X81507Y303598D01*
X83174Y304712D01*
X84288Y306379D01*
X84403Y306961D01*
X95845D01*
X97332Y307256D01*
X98592Y308098D01*
X103000Y312506D01*
X104843Y311521D01*
X104704Y310820D01*
Y309620D01*
X105087Y307693D01*
X106179Y306059D01*
X107813Y304967D01*
X108201Y304890D01*
Y302851D01*
X107813Y302774D01*
X106179Y301682D01*
X105087Y300048D01*
X104837Y298790D01*
X124844D01*
X124594Y300048D01*
X123502Y301682D01*
X121868Y302774D01*
X121481Y302851D01*
Y304890D01*
X121868Y304967D01*
X123502Y306059D01*
X123687Y306336D01*
X126892D01*
X128378Y306631D01*
X129639Y307474D01*
X135125Y312960D01*
X135801D01*
X138205Y313956D01*
X140044Y315795D01*
X141040Y318199D01*
Y320801D01*
X140044Y323205D01*
X138205Y325044D01*
X135801Y326040D01*
X133199D01*
X130795Y325044D01*
X128956Y323205D01*
X127960Y320801D01*
Y318199D01*
X128375Y317197D01*
X125523Y314346D01*
X123502Y314382D01*
X121868Y315474D01*
X121481Y315551D01*
Y317590D01*
X121868Y317667D01*
X123502Y318759D01*
X124594Y320393D01*
X124977Y322320D01*
Y323520D01*
X124594Y325448D01*
X123502Y327082D01*
X121868Y328174D01*
X121481Y328251D01*
Y330290D01*
X121868Y330367D01*
X123502Y331459D01*
X124594Y333093D01*
X124977Y335020D01*
Y336220D01*
X124594Y338148D01*
X123502Y339782D01*
X121868Y340874D01*
X119941Y341257D01*
D02*
G37*
G36*
X268519Y336540D02*
X265481D01*
X262546Y335754D01*
X259914Y334234D01*
X257766Y332086D01*
X256246Y329454D01*
X255460Y326519D01*
Y323481D01*
X256246Y320546D01*
X257766Y317914D01*
X259914Y315766D01*
X262546Y314247D01*
X265481Y313460D01*
X268519D01*
X271454Y314247D01*
X274086Y315766D01*
X276234Y317914D01*
X277753Y320546D01*
X278540Y323481D01*
Y326519D01*
X277753Y329454D01*
X276234Y332086D01*
X274086Y334234D01*
X271454Y335754D01*
X268519Y336540D01*
D02*
G37*
G36*
X16019D02*
X12981D01*
X10046Y335754D01*
X7414Y334234D01*
X5266Y332086D01*
X3746Y329454D01*
X2960Y326519D01*
Y323481D01*
X3746Y320546D01*
X5266Y317914D01*
X7414Y315766D01*
X10046Y314247D01*
X12981Y313460D01*
X16019D01*
X18954Y314247D01*
X21586Y315766D01*
X23734Y317914D01*
X25254Y320546D01*
X26040Y323481D01*
Y326519D01*
X25254Y329454D01*
X23734Y332086D01*
X21586Y334234D01*
X18954Y335754D01*
X16019Y336540D01*
D02*
G37*
G36*
X234790Y320874D02*
X231810D01*
Y312990D01*
X240694D01*
Y314970D01*
X240244Y317230D01*
X238965Y319145D01*
X237049Y320424D01*
X234790Y320874D01*
D02*
G37*
G36*
X54791D02*
X51811D01*
Y312990D01*
X60694D01*
Y314970D01*
X60245Y317230D01*
X58965Y319145D01*
X57050Y320424D01*
X54791Y320874D01*
D02*
G37*
G36*
X49271D02*
X46291D01*
X44031Y320424D01*
X42116Y319145D01*
X40837Y317230D01*
X40387Y314970D01*
Y312990D01*
X49271D01*
Y320874D01*
D02*
G37*
G36*
X240694Y310450D02*
X231810D01*
Y302567D01*
X234790D01*
X237049Y303016D01*
X238965Y304296D01*
X240244Y306211D01*
X240694Y308470D01*
Y310450D01*
D02*
G37*
G36*
X60694D02*
X51811D01*
Y302567D01*
X54791D01*
X57050Y303016D01*
X58965Y304296D01*
X60245Y306211D01*
X60694Y308470D01*
Y310450D01*
D02*
G37*
G36*
X49271D02*
X40387D01*
Y308470D01*
X40837Y306211D01*
X42116Y304296D01*
X44031Y303016D01*
X46291Y302567D01*
X49271D01*
Y310450D01*
D02*
G37*
G36*
X268519Y311140D02*
X265481D01*
X262546Y310354D01*
X259914Y308834D01*
X257766Y306686D01*
X256246Y304054D01*
X255460Y301119D01*
Y298081D01*
X256246Y295146D01*
X257766Y292514D01*
X259914Y290366D01*
X262546Y288847D01*
X265481Y288060D01*
X268519D01*
X271454Y288847D01*
X274086Y290366D01*
X276234Y292514D01*
X277753Y295146D01*
X278540Y298081D01*
Y301119D01*
X277753Y304054D01*
X276234Y306686D01*
X274086Y308834D01*
X271454Y310354D01*
X268519Y311140D01*
D02*
G37*
G36*
X16019D02*
X12981D01*
X10046Y310354D01*
X7414Y308834D01*
X5266Y306686D01*
X3746Y304054D01*
X2960Y301119D01*
Y298081D01*
X3746Y295146D01*
X5266Y292514D01*
X7414Y290366D01*
X10046Y288847D01*
X12981Y288060D01*
X16019D01*
X18954Y288847D01*
X21586Y290366D01*
X23734Y292514D01*
X25254Y295146D01*
X26040Y298081D01*
Y301119D01*
X25254Y304054D01*
X23734Y306686D01*
X21586Y308834D01*
X18954Y310354D01*
X16019Y311140D01*
D02*
G37*
G36*
X268519Y285740D02*
X265481D01*
X262546Y284954D01*
X259914Y283434D01*
X257766Y281286D01*
X256246Y278654D01*
X255460Y275719D01*
Y272681D01*
X256246Y269746D01*
X257766Y267114D01*
X259914Y264966D01*
X262546Y263447D01*
X265481Y262660D01*
X268519D01*
X271454Y263447D01*
X274086Y264966D01*
X276234Y267114D01*
X277753Y269746D01*
X278540Y272681D01*
Y275719D01*
X277753Y278654D01*
X276234Y281286D01*
X274086Y283434D01*
X271454Y284954D01*
X268519Y285740D01*
D02*
G37*
G36*
X16019D02*
X12981D01*
X10046Y284954D01*
X7414Y283434D01*
X5266Y281286D01*
X3746Y278654D01*
X2960Y275719D01*
Y272681D01*
X3746Y269746D01*
X5266Y267114D01*
X7414Y264966D01*
X10046Y263447D01*
X12981Y262660D01*
X16019D01*
X18954Y263447D01*
X21586Y264966D01*
X23734Y267114D01*
X25254Y269746D01*
X26040Y272681D01*
Y275719D01*
X25254Y278654D01*
X23734Y281286D01*
X21586Y283434D01*
X18954Y284954D01*
X16019Y285740D01*
D02*
G37*
G36*
Y260340D02*
X12981D01*
X10046Y259554D01*
X7414Y258034D01*
X5266Y255886D01*
X3746Y253254D01*
X2960Y250319D01*
Y247281D01*
X3746Y244346D01*
X5266Y241714D01*
X7414Y239566D01*
X10046Y238047D01*
X12981Y237260D01*
X16019D01*
X18954Y238047D01*
X21586Y239566D01*
X23734Y241714D01*
X25254Y244346D01*
X26040Y247281D01*
Y250319D01*
X25254Y253254D01*
X23734Y255886D01*
X21586Y258034D01*
X18954Y259554D01*
X16019Y260340D01*
D02*
G37*
G36*
X268519Y234940D02*
X265481D01*
X262546Y234154D01*
X259914Y232634D01*
X257766Y230486D01*
X256246Y227854D01*
X255460Y224919D01*
Y221881D01*
X256246Y218946D01*
X257766Y216314D01*
X259914Y214166D01*
X262546Y212647D01*
X265481Y211860D01*
X268519D01*
X271454Y212647D01*
X274086Y214166D01*
X276234Y216314D01*
X277753Y218946D01*
X278540Y221881D01*
Y224919D01*
X277753Y227854D01*
X276234Y230486D01*
X274086Y232634D01*
X271454Y234154D01*
X268519Y234940D01*
D02*
G37*
G36*
X16019D02*
X12981D01*
X10046Y234154D01*
X7414Y232634D01*
X5266Y230486D01*
X3746Y227854D01*
X2960Y224919D01*
Y221881D01*
X3746Y218946D01*
X5266Y216314D01*
X7414Y214166D01*
X10046Y212647D01*
X12981Y211860D01*
X16019D01*
X18954Y212647D01*
X21586Y214166D01*
X23734Y216314D01*
X25254Y218946D01*
X26040Y221881D01*
Y224919D01*
X25254Y227854D01*
X23734Y230486D01*
X21586Y232634D01*
X18954Y234154D01*
X16019Y234940D01*
D02*
G37*
G36*
X268519Y209540D02*
X265481D01*
X262546Y208754D01*
X259914Y207234D01*
X257766Y205086D01*
X256246Y202454D01*
X255460Y199519D01*
Y196481D01*
X256246Y193546D01*
X257766Y190914D01*
X259914Y188766D01*
X262546Y187247D01*
X265481Y186460D01*
X268519D01*
X271454Y187247D01*
X274086Y188766D01*
X276234Y190914D01*
X277753Y193546D01*
X278540Y196481D01*
Y199519D01*
X277753Y202454D01*
X276234Y205086D01*
X274086Y207234D01*
X271454Y208754D01*
X268519Y209540D01*
D02*
G37*
G36*
X16019D02*
X12981D01*
X10046Y208754D01*
X7414Y207234D01*
X5266Y205086D01*
X3746Y202454D01*
X2960Y199519D01*
Y196481D01*
X3746Y193546D01*
X5266Y190914D01*
X7414Y188766D01*
X10046Y187247D01*
X12981Y186460D01*
X16019D01*
X18954Y187247D01*
X21586Y188766D01*
X23734Y190914D01*
X25254Y193546D01*
X26040Y196481D01*
Y199519D01*
X25254Y202454D01*
X23734Y205086D01*
X21586Y207234D01*
X18954Y208754D01*
X16019Y209540D01*
D02*
G37*
G36*
X268519Y184140D02*
X265481D01*
X262546Y183354D01*
X259914Y181834D01*
X257766Y179686D01*
X256246Y177054D01*
X255460Y174119D01*
Y171081D01*
X256246Y168146D01*
X257766Y165514D01*
X259914Y163366D01*
X262546Y161847D01*
X265481Y161060D01*
X268519D01*
X271454Y161847D01*
X274086Y163366D01*
X276234Y165514D01*
X277753Y168146D01*
X278540Y171081D01*
Y174119D01*
X277753Y177054D01*
X276234Y179686D01*
X274086Y181834D01*
X271454Y183354D01*
X268519Y184140D01*
D02*
G37*
G36*
X16019D02*
X12981D01*
X10046Y183354D01*
X7414Y181834D01*
X5266Y179686D01*
X3746Y177054D01*
X2960Y174119D01*
Y171081D01*
X3746Y168146D01*
X5266Y165514D01*
X7414Y163366D01*
X10046Y161847D01*
X12981Y161060D01*
X16019D01*
X18954Y161847D01*
X21586Y163366D01*
X23734Y165514D01*
X25254Y168146D01*
X26040Y171081D01*
Y174119D01*
X25254Y177054D01*
X23734Y179686D01*
X21586Y181834D01*
X18954Y183354D01*
X16019Y184140D01*
D02*
G37*
G36*
X59000Y142764D02*
X56270D01*
Y136395D01*
X64139D01*
Y137625D01*
X63747Y139592D01*
X62634Y141259D01*
X60966Y142373D01*
X59000Y142764D01*
D02*
G37*
G36*
X53730D02*
X51000D01*
X49033Y142373D01*
X47366Y141259D01*
X46252Y139592D01*
X45861Y137625D01*
Y136395D01*
X53730D01*
Y142764D01*
D02*
G37*
G36*
X268519Y158740D02*
X265481D01*
X262546Y157954D01*
X259914Y156434D01*
X257766Y154286D01*
X256246Y151654D01*
X255460Y148719D01*
Y145681D01*
X256246Y142746D01*
X257766Y140114D01*
X259914Y137966D01*
X262546Y136447D01*
X265481Y135660D01*
X268519D01*
X271454Y136447D01*
X274086Y137966D01*
X276234Y140114D01*
X277753Y142746D01*
X278540Y145681D01*
Y148719D01*
X277753Y151654D01*
X276234Y154286D01*
X274086Y156434D01*
X271454Y157954D01*
X268519Y158740D01*
D02*
G37*
G36*
X16019D02*
X12981D01*
X10046Y157954D01*
X7414Y156434D01*
X5266Y154286D01*
X3746Y151654D01*
X2960Y148719D01*
Y145681D01*
X3746Y142746D01*
X5266Y140114D01*
X7414Y137966D01*
X10046Y136447D01*
X12981Y135660D01*
X16019D01*
X18954Y136447D01*
X21586Y137966D01*
X23734Y140114D01*
X25254Y142746D01*
X26040Y145681D01*
Y148719D01*
X25254Y151654D01*
X23734Y154286D01*
X21586Y156434D01*
X18954Y157954D01*
X16019Y158740D01*
D02*
G37*
G36*
X64139Y133855D02*
X56270D01*
Y127486D01*
X59000D01*
X60966Y127878D01*
X62634Y128991D01*
X63747Y130659D01*
X64139Y132625D01*
Y133855D01*
D02*
G37*
G36*
X53730D02*
X45861D01*
Y132625D01*
X46252Y130659D01*
X47366Y128991D01*
X49033Y127878D01*
X51000Y127486D01*
X53730D01*
Y133855D01*
D02*
G37*
G36*
X268519Y133340D02*
X268270D01*
Y123070D01*
X278540D01*
Y123319D01*
X277753Y126254D01*
X276234Y128886D01*
X274086Y131034D01*
X271454Y132554D01*
X268519Y133340D01*
D02*
G37*
G36*
X16019D02*
X15770D01*
Y123070D01*
X26040D01*
Y123319D01*
X25254Y126254D01*
X23734Y128886D01*
X21586Y131034D01*
X18954Y132554D01*
X16019Y133340D01*
D02*
G37*
G36*
X265730D02*
X265481D01*
X262546Y132554D01*
X259914Y131034D01*
X257766Y128886D01*
X256246Y126254D01*
X255460Y123319D01*
Y123070D01*
X265730D01*
Y133340D01*
D02*
G37*
G36*
X13230D02*
X12981D01*
X10046Y132554D01*
X7414Y131034D01*
X5266Y128886D01*
X3746Y126254D01*
X2960Y123319D01*
Y123070D01*
X13230D01*
Y133340D01*
D02*
G37*
G36*
X278540Y120530D02*
X268270D01*
Y110260D01*
X268519D01*
X271454Y111047D01*
X274086Y112566D01*
X276234Y114714D01*
X277753Y117346D01*
X278540Y120281D01*
Y120530D01*
D02*
G37*
G36*
X265730D02*
X255460D01*
Y120281D01*
X256246Y117346D01*
X257766Y114714D01*
X259914Y112566D01*
X262546Y111047D01*
X265481Y110260D01*
X265730D01*
Y120530D01*
D02*
G37*
G36*
X26040D02*
X15770D01*
Y110260D01*
X16019D01*
X18954Y111047D01*
X21586Y112566D01*
X23734Y114714D01*
X25254Y117346D01*
X26040Y120281D01*
Y120530D01*
D02*
G37*
G36*
X13230D02*
X2960D01*
Y120281D01*
X3746Y117346D01*
X5266Y114714D01*
X7414Y112566D01*
X10046Y111047D01*
X12981Y110260D01*
X13230D01*
Y120530D01*
D02*
G37*
G36*
X16019Y107940D02*
X12981D01*
X10046Y107154D01*
X7414Y105634D01*
X5266Y103486D01*
X3746Y100854D01*
X2960Y97919D01*
Y94881D01*
X3746Y91946D01*
X5266Y89314D01*
X7414Y87166D01*
X10046Y85647D01*
X12981Y84860D01*
X16019D01*
X18954Y85647D01*
X21586Y87166D01*
X23734Y89314D01*
X25254Y91946D01*
X26040Y94881D01*
Y97919D01*
X25254Y100854D01*
X23734Y103486D01*
X21586Y105634D01*
X18954Y107154D01*
X16019Y107940D01*
D02*
G37*
G36*
X59000Y122514D02*
X51000D01*
X49033Y122123D01*
X47366Y121009D01*
X46252Y119342D01*
X45861Y117375D01*
Y112375D01*
X46252Y110409D01*
X47366Y108742D01*
X49033Y107628D01*
X51000Y107236D01*
X51115D01*
Y94584D01*
X51405Y93125D01*
X50766Y92486D01*
X49246Y89854D01*
X48460Y86919D01*
Y83881D01*
X49246Y80946D01*
X50766Y78314D01*
X52914Y76166D01*
X55546Y74646D01*
X58481Y73860D01*
X61519D01*
X64454Y74646D01*
X67086Y76166D01*
X69234Y78314D01*
X70753Y80946D01*
X71540Y83881D01*
Y86919D01*
X70753Y89854D01*
X69234Y92486D01*
X67086Y94634D01*
X64454Y96153D01*
X61519Y96940D01*
X58885D01*
Y107236D01*
X59000D01*
X60966Y107628D01*
X62634Y108742D01*
X63747Y110409D01*
X64139Y112375D01*
Y117375D01*
X63747Y119342D01*
X62634Y121009D01*
X60966Y122123D01*
X59000Y122514D01*
D02*
G37*
G36*
X246250Y79154D02*
X244270D01*
Y70270D01*
X252153D01*
Y73250D01*
X251704Y75509D01*
X250424Y77425D01*
X248509Y78704D01*
X246250Y79154D01*
D02*
G37*
G36*
X241730D02*
X239750D01*
X237491Y78704D01*
X235576Y77425D01*
X234296Y75509D01*
X233847Y73250D01*
Y70270D01*
X241730D01*
Y79154D01*
D02*
G37*
G36*
X268519Y107940D02*
X265481D01*
X262546Y107154D01*
X259914Y105634D01*
X257766Y103486D01*
X256246Y100854D01*
X255460Y97919D01*
Y94881D01*
X256246Y91946D01*
X257766Y89314D01*
X259914Y87166D01*
X262115Y85895D01*
Y79154D01*
X261750D01*
X259491Y78704D01*
X257576Y77425D01*
X256296Y75509D01*
X255847Y73250D01*
Y64750D01*
X256296Y62491D01*
X257576Y60576D01*
X259491Y59296D01*
X261750Y58847D01*
X268250D01*
X270509Y59296D01*
X272424Y60576D01*
X273704Y62491D01*
X274153Y64750D01*
Y73250D01*
X273704Y75509D01*
X272424Y77425D01*
X270509Y78704D01*
X269885Y78828D01*
Y85226D01*
X271454Y85647D01*
X274086Y87166D01*
X276234Y89314D01*
X277753Y91946D01*
X278540Y94881D01*
Y97919D01*
X277753Y100854D01*
X276234Y103486D01*
X274086Y105634D01*
X271454Y107154D01*
X268519Y107940D01*
D02*
G37*
G36*
X252153Y67730D02*
X244270D01*
Y58847D01*
X246250D01*
X248509Y59296D01*
X250424Y60576D01*
X251704Y62491D01*
X252153Y64750D01*
Y67730D01*
D02*
G37*
G36*
X241730D02*
X233847D01*
Y64750D01*
X234296Y62491D01*
X235576Y60576D01*
X237491Y59296D01*
X239750Y58847D01*
X241730D01*
Y67730D01*
D02*
G37*
G36*
X71540Y71540D02*
X48460D01*
Y48460D01*
X71540D01*
Y71540D01*
D02*
G37*
G36*
X103919Y46540D02*
X103670D01*
Y36270D01*
X113940D01*
Y36519D01*
X113153Y39454D01*
X111634Y42086D01*
X109486Y44234D01*
X106854Y45754D01*
X103919Y46540D01*
D02*
G37*
G36*
X101130D02*
X100881D01*
X97946Y45754D01*
X95314Y44234D01*
X93166Y42086D01*
X91646Y39454D01*
X90860Y36519D01*
Y36270D01*
X101130D01*
Y46540D01*
D02*
G37*
G36*
X260077Y40880D02*
X259620D01*
Y24610D01*
X275890D01*
Y25068D01*
X275216Y28456D01*
X273894Y31648D01*
X271974Y34521D01*
X269531Y36964D01*
X266658Y38884D01*
X263466Y40206D01*
X260077Y40880D01*
D02*
G37*
G36*
X257080D02*
X256623D01*
X253234Y40206D01*
X250042Y38884D01*
X247169Y36964D01*
X244726Y34521D01*
X242806Y31648D01*
X241484Y28456D01*
X240810Y25068D01*
Y24610D01*
X257080D01*
Y40880D01*
D02*
G37*
G36*
X25078D02*
X24620D01*
Y24610D01*
X40890D01*
Y25068D01*
X40216Y28456D01*
X38894Y31648D01*
X36974Y34521D01*
X34531Y36964D01*
X31658Y38884D01*
X28466Y40206D01*
X25078Y40880D01*
D02*
G37*
G36*
X22080D02*
X21623D01*
X18234Y40206D01*
X15042Y38884D01*
X12169Y36964D01*
X9726Y34521D01*
X7806Y31648D01*
X6484Y28456D01*
X5810Y25068D01*
Y24610D01*
X22080D01*
Y40880D01*
D02*
G37*
G36*
X143519Y46540D02*
X140481D01*
X137546Y45754D01*
X134914Y44234D01*
X132766Y42086D01*
X131246Y39454D01*
X130460Y36519D01*
Y33481D01*
X131246Y30546D01*
X132766Y27914D01*
X134914Y25766D01*
X137546Y24246D01*
X140481Y23460D01*
X143519D01*
X146454Y24246D01*
X149086Y25766D01*
X151234Y27914D01*
X152753Y30546D01*
X153540Y33481D01*
Y36519D01*
X152753Y39454D01*
X151234Y42086D01*
X149086Y44234D01*
X146454Y45754D01*
X143519Y46540D01*
D02*
G37*
G36*
X113940Y33730D02*
X103670D01*
Y23460D01*
X103919D01*
X106854Y24246D01*
X109486Y25766D01*
X111634Y27914D01*
X113153Y30546D01*
X113940Y33481D01*
Y33730D01*
D02*
G37*
G36*
X101130D02*
X90860D01*
Y33481D01*
X91646Y30546D01*
X93166Y27914D01*
X95314Y25766D01*
X97946Y24246D01*
X100881Y23460D01*
X101130D01*
Y33730D01*
D02*
G37*
G36*
X275890Y22070D02*
X259620D01*
Y5800D01*
X260077D01*
X263466Y6474D01*
X266658Y7796D01*
X269531Y9716D01*
X271974Y12159D01*
X273894Y15032D01*
X275216Y18224D01*
X275890Y21613D01*
Y22070D01*
D02*
G37*
G36*
X257080D02*
X240810D01*
Y21613D01*
X241484Y18224D01*
X242806Y15032D01*
X244726Y12159D01*
X247169Y9716D01*
X250042Y7796D01*
X253234Y6474D01*
X256623Y5800D01*
X257080D01*
Y22070D01*
D02*
G37*
G36*
X40890D02*
X24620D01*
Y5800D01*
X25078D01*
X28466Y6474D01*
X31658Y7796D01*
X34531Y9716D01*
X36974Y12159D01*
X38894Y15032D01*
X40216Y18224D01*
X40890Y21613D01*
Y22070D01*
D02*
G37*
G36*
X22080D02*
X5810D01*
Y21613D01*
X6484Y18224D01*
X7806Y15032D01*
X9726Y12159D01*
X12169Y9716D01*
X15042Y7796D01*
X18234Y6474D01*
X21623Y5800D01*
X22080D01*
Y22070D01*
D02*
G37*
%LPD*%
D10*
X53420Y136705D02*
X55000Y135125D01*
Y94584D02*
Y114875D01*
Y94584D02*
X60000Y89583D01*
Y85400D02*
Y89583D01*
X34690Y129873D02*
X39942Y135125D01*
X34690Y61922D02*
Y129873D01*
Y61922D02*
X61612Y35000D01*
X102400D01*
X266000Y70000D02*
Y95400D01*
X187000Y272000D02*
X243800D01*
X167840Y291160D02*
X187000Y272000D01*
X243800D02*
X267000Y248800D01*
X266000Y95400D02*
X267000Y96400D01*
X265000Y69000D02*
X266000Y70000D01*
X167840Y291160D02*
Y297520D01*
X252524Y326438D02*
Y453104D01*
X212908Y492720D02*
X252524Y453104D01*
X241815Y315728D02*
X252524Y326438D01*
X246690Y84000D02*
X255200D01*
X243000Y80310D02*
X246690Y84000D01*
X243000Y69000D02*
Y80310D01*
X125080Y452920D02*
X136341D01*
X119040Y458960D02*
X125080Y452920D01*
X119040Y458960D02*
Y472140D01*
Y475701D01*
X117552Y470652D02*
X119040Y472140D01*
X113649Y470652D02*
X117552D01*
X158341Y438720D02*
Y452920D01*
Y438720D02*
X167291Y429770D01*
X112161Y472140D02*
X113649Y470652D01*
X112161Y472140D02*
Y478382D01*
X112850Y479071D01*
Y506369D01*
X107690Y511530D02*
X112850Y506369D01*
X80391Y511530D02*
X107690D01*
X33963Y465102D02*
X80391Y511530D01*
X33963Y447930D02*
Y465102D01*
X31544Y445512D02*
X33963Y447930D01*
X31544Y409924D02*
Y445512D01*
X129040Y485701D02*
Y492720D01*
X194040D02*
X199280D01*
X158910Y487590D02*
X164041Y492720D01*
X158910Y482590D02*
Y487590D01*
Y482590D02*
X192541Y448959D01*
Y435720D02*
Y448959D01*
X55258Y442850D02*
X99040Y486632D01*
Y492720D01*
X54271Y442850D02*
X55258D01*
X54000Y442579D02*
X54271Y442850D01*
X156231Y374769D02*
Y423815D01*
X161508Y429093D01*
X143812Y429770D02*
X161340D01*
X167291D01*
X156231Y374769D02*
X161340Y369660D01*
Y357920D02*
Y369660D01*
Y357920D02*
X163046Y359626D01*
X174626D02*
X187000Y372000D01*
X163046Y359626D02*
X174626D01*
X94443Y392850D02*
Y419091D01*
X112225Y429204D02*
X112791Y429770D01*
X94443Y419091D02*
X104556Y429204D01*
X112225D01*
X90592Y389000D02*
X94443Y392850D01*
X64935Y389000D02*
X68215Y385720D01*
X62935Y391000D02*
X64935Y389000D01*
X100378Y375380D02*
Y413768D01*
X103680Y417070D01*
X63000Y379391D02*
Y390935D01*
X103680Y417070D02*
X112791D01*
X63000Y391000D02*
Y403000D01*
X46000Y420000D02*
X63000Y403000D01*
X45541Y420459D02*
X46000Y420000D01*
X45541Y420459D02*
Y435720D01*
X73404Y335596D02*
X75540D01*
X63000Y346000D02*
X73404Y335596D01*
X63137Y361253D02*
X74724Y372840D01*
X63137Y346000D02*
Y361253D01*
X68215Y385720D02*
X86540D01*
X53271Y369662D02*
X63000Y379391D01*
X50541Y355845D02*
X53271Y358575D01*
Y369662D01*
X52596Y335596D02*
X63000Y346000D01*
X50541Y335596D02*
X52596D01*
X230540Y311721D02*
X234548Y315728D01*
X207820Y497808D02*
X212908Y492720D01*
X279810Y134610D02*
Y462578D01*
X33068Y306800D02*
X37989Y311721D01*
X33068Y140368D02*
Y306546D01*
X156512Y57261D02*
X178773Y35000D01*
X181600D01*
X159560Y335620D02*
X165267D01*
X156512Y332572D02*
X159560Y335620D01*
X156512Y57261D02*
Y332572D01*
X253626Y22066D02*
X264040Y32480D01*
X112507Y22066D02*
X253626D01*
X165267Y335620D02*
X167840D01*
X81224Y322698D02*
X90726Y332200D01*
X50541Y321210D02*
X52028Y322698D01*
X50541Y311721D02*
Y321210D01*
X52028Y322698D02*
X81224D01*
X199280Y492720D02*
X212908D01*
X233540Y435720D02*
Y458460D01*
X126892Y310220D02*
X134500Y317829D01*
Y319500D01*
X114841Y297520D02*
X130020D01*
X144500Y312000D01*
X131672Y290595D02*
X149654Y308578D01*
Y371643D01*
X75540Y290595D02*
X131672D01*
X139340Y355849D02*
Y357920D01*
X114841Y310220D02*
X126892D01*
X192541Y423640D02*
Y435720D01*
X45541Y385720D02*
Y395928D01*
X232740Y384920D02*
X233540Y385720D01*
X227000Y379180D02*
X232740Y384920D01*
X187000Y372000D02*
Y381780D01*
X190941Y385720D01*
X192541D01*
X163623Y337264D02*
X165267Y335620D01*
X163623Y337264D02*
Y355637D01*
X79978Y356126D02*
X84416Y356408D01*
X79978Y356126D02*
Y357222D01*
X80677Y357920D01*
X119179D01*
X139340D01*
X90726Y332200D02*
Y349860D01*
X84432Y356154D02*
X90726Y349860D01*
X112570Y364529D02*
Y391670D01*
Y364529D02*
X119179Y357920D01*
X45119Y385720D02*
X45541D01*
X37989Y378590D02*
X45119Y385720D01*
X74914Y291222D02*
X75540Y290595D01*
X50541Y289720D02*
X52042Y291222D01*
X74914D01*
X210906Y320986D02*
X217524Y314368D01*
Y301605D02*
Y314368D01*
X206515Y290595D02*
X217524Y301605D01*
Y301605D02*
X229409Y289720D01*
X230540D01*
X205541Y290595D02*
X206515D01*
X88662Y437842D02*
X135740D01*
X86540Y435720D02*
X88662Y437842D01*
X135740D02*
X143812Y429770D01*
X112791Y404370D02*
X116927D01*
X149654Y371643D01*
X229243Y335720D02*
X230540D01*
X217809Y347155D02*
X229243Y335720D01*
X218143Y347743D02*
Y396045D01*
X206531Y335876D02*
X218143Y347489D01*
X209818Y404370D02*
X218143Y396045D01*
X210360Y417070D02*
X224810Y402620D01*
X231940Y385720D02*
X233540D01*
X224810Y392850D02*
X231940Y385720D01*
X224810Y392850D02*
Y402620D01*
X167291Y391670D02*
X172294D01*
X178610Y397986D01*
X187246Y358362D02*
X206550Y372840D01*
X167291Y404370D02*
X209818D01*
X206550Y372840D02*
Y397986D01*
X178610D02*
X206550D01*
X227000Y359510D02*
Y379180D01*
Y359510D02*
X230540Y355970D01*
X204785Y310090D02*
X205541Y310845D01*
X167971Y310090D02*
X204785D01*
X187246Y327120D02*
X193380Y320986D01*
X210906D01*
X194411Y329660D02*
X197205Y326866D01*
X225714D01*
X230540Y322040D01*
X167840Y310220D02*
Y322920D01*
X75540Y310845D02*
X95845D01*
X106888Y321888D02*
X113808D01*
X114841Y322920D01*
X95845Y310845D02*
X106888Y321888D01*
X37989Y311721D02*
X50541D01*
X185971Y417070D02*
X210360D01*
X187246Y327120D02*
Y358362D01*
X167291Y417070D02*
X185971D01*
X192541Y423640D01*
X74724Y372840D02*
X97838D01*
X100378Y375380D01*
X112570Y391670D02*
X112791D01*
X195120Y355970D02*
X205541D01*
X194411Y355261D02*
X195120Y355970D01*
X194411Y329660D02*
Y355261D01*
X230540Y311721D02*
Y322040D01*
X114841Y322920D02*
Y335620D01*
D14*
X55000Y135125D02*
D03*
Y114875D02*
D03*
X50541Y335596D02*
D03*
Y355845D02*
D03*
X75540Y290595D02*
D03*
Y310845D02*
D03*
Y355845D02*
D03*
Y335596D02*
D03*
X205541Y290595D02*
D03*
Y310845D02*
D03*
X230540Y355970D02*
D03*
Y335720D02*
D03*
X205541Y355970D02*
D03*
Y335720D02*
D03*
D15*
X157000Y492000D02*
D03*
X187000D02*
D03*
X127000D02*
D03*
X97000D02*
D03*
D16*
X158341Y452920D02*
D03*
X136341D02*
D03*
X161340Y357920D02*
D03*
X139340D02*
D03*
X265000Y69000D02*
D03*
X243000D02*
D03*
D17*
X86540Y435720D02*
D03*
X45541D02*
D03*
X86540Y385720D02*
D03*
X45541D02*
D03*
X233540Y435720D02*
D03*
X192541D02*
D03*
X233540Y385720D02*
D03*
X192541D02*
D03*
D18*
X50541Y311721D02*
D03*
Y289720D02*
D03*
X230540Y311721D02*
D03*
Y289720D02*
D03*
D19*
X140041Y410720D02*
D03*
D20*
X167291Y391670D02*
D03*
Y404370D02*
D03*
Y417070D02*
D03*
Y429770D02*
D03*
X112791Y391670D02*
D03*
Y404370D02*
D03*
Y417070D02*
D03*
Y429770D02*
D03*
D21*
X114841Y335620D02*
D03*
Y322920D02*
D03*
Y310220D02*
D03*
Y297520D02*
D03*
X167840D02*
D03*
Y310220D02*
D03*
Y322920D02*
D03*
Y335620D02*
D03*
D34*
X60000Y60000D02*
D03*
X267000Y452000D02*
D03*
D35*
X60000Y85400D02*
D03*
X14500Y452000D02*
D03*
Y426600D02*
D03*
Y401200D02*
D03*
Y375800D02*
D03*
Y350400D02*
D03*
Y325000D02*
D03*
Y299600D02*
D03*
Y274200D02*
D03*
Y248800D02*
D03*
Y223400D02*
D03*
Y198000D02*
D03*
Y172600D02*
D03*
Y147200D02*
D03*
Y121800D02*
D03*
Y96400D02*
D03*
X267000D02*
D03*
Y121800D02*
D03*
Y147200D02*
D03*
Y172600D02*
D03*
Y198000D02*
D03*
Y223400D02*
D03*
Y248800D02*
D03*
Y274200D02*
D03*
Y299600D02*
D03*
Y325000D02*
D03*
Y350400D02*
D03*
Y375800D02*
D03*
Y401200D02*
D03*
Y426600D02*
D03*
X181600Y35000D02*
D03*
X142000D02*
D03*
X102400D02*
D03*
D36*
X134500Y319500D02*
D03*
M02*
