G04*
G04 #@! TF.GenerationSoftware,Altium Limited,Altium Designer,23.4.1 (23)*
G04*
G04 Layer_Physical_Order=2*
G04 Layer_Color=16711680*
%FSLAX44Y44*%
%MOMM*%
G71*
G04*
G04 #@! TF.SameCoordinates,5EEC9E03-0704-45D2-AC34-B4BBD991BA5A*
G04*
G04*
G04 #@! TF.FilePolarity,Positive*
G04*
G01*
G75*
%ADD10C,0.2540*%
%ADD34R,1.8000X1.8000*%
%ADD35C,1.8000*%
%ADD36C,0.8000*%
D10*
X81444Y37840D02*
Y51366D01*
X72810Y60000D02*
X81444Y51366D01*
X60000Y60000D02*
X72810D01*
X81444Y37840D02*
X97094Y22190D01*
X129190D01*
X142000Y35000D01*
X203400Y96400D01*
X267000D01*
X240390Y300810D02*
X267000Y274200D01*
X150690Y300810D02*
X240390D01*
X134500Y317481D02*
Y319500D01*
Y317481D02*
X136940Y315042D01*
Y314560D02*
Y315042D01*
Y314560D02*
X150690Y300810D01*
D34*
X60000Y60000D02*
D03*
X267000Y452000D02*
D03*
D35*
X60000Y85400D02*
D03*
X14500Y452000D02*
D03*
Y426600D02*
D03*
Y401200D02*
D03*
Y375800D02*
D03*
Y350400D02*
D03*
Y325000D02*
D03*
Y299600D02*
D03*
Y274200D02*
D03*
Y248800D02*
D03*
Y223400D02*
D03*
Y198000D02*
D03*
Y172600D02*
D03*
Y147200D02*
D03*
Y121800D02*
D03*
Y96400D02*
D03*
X267000D02*
D03*
Y121800D02*
D03*
Y147200D02*
D03*
Y172600D02*
D03*
Y198000D02*
D03*
Y223400D02*
D03*
Y248800D02*
D03*
Y274200D02*
D03*
Y299600D02*
D03*
Y325000D02*
D03*
Y350400D02*
D03*
Y375800D02*
D03*
Y401200D02*
D03*
Y426600D02*
D03*
X181600Y35000D02*
D03*
X142000D02*
D03*
X102400D02*
D03*
D36*
X134500Y319500D02*
D03*
M02*
